<svg width="30" height="27" viewBox="0 0 30 27" fill="none" xmlns="http://www.w3.org/2000/svg">
<path fill-rule="evenodd" clip-rule="evenodd" d="M10.3994 0.482178C9.29484 0.482178 8.39941 1.37761 8.39941 2.48218V12.8739H21.6135V2.48218C21.6135 1.37761 20.718 0.482178 19.6135 0.482178H10.3994ZM14.218 2.9757C13.5209 2.9757 12.9558 3.5408 12.9558 4.23788C12.9558 4.93497 13.5209 5.50007 14.218 5.50007H15.7936C16.4907 5.50007 17.0558 4.93497 17.0558 4.23788C17.0558 3.5408 16.4907 2.9757 15.7936 2.9757H14.218Z" fill="#63615E"/>
<path fill-rule="evenodd" clip-rule="evenodd" d="M2.66504 14.4866C1.56047 14.4866 0.665039 15.382 0.665039 16.4866V26.8783H13.8791V14.4866H2.66504ZM6.48468 16.9801C5.78759 16.9801 5.22249 17.5452 5.22249 18.2423C5.22249 18.9394 5.78759 19.5045 6.48468 19.5045H8.06035C8.75743 19.5045 9.32253 18.9394 9.32253 18.2423C9.32253 17.5452 8.75743 16.9801 8.06035 16.9801H6.48468Z" fill="#63615E"/>
<path fill-rule="evenodd" clip-rule="evenodd" d="M27.425 14.4865H16.2109V26.8782H29.425V16.4865C29.425 15.3819 28.5296 14.4865 27.425 14.4865ZM22.0306 16.98C21.3335 16.98 20.7684 17.5451 20.7684 18.2422C20.7684 18.9392 21.3335 19.5043 22.0306 19.5043H23.6062C24.3033 19.5043 24.8684 18.9392 24.8684 18.2422C24.8684 17.5451 24.3033 16.98 23.6062 16.98H22.0306Z" fill="#63615E"/>
</svg>
