<svg width="61" height="74" viewBox="0 0 61 74" fill="none" xmlns="http://www.w3.org/2000/svg">
<path d="M56.9066 73.7371H4.03569C4.00722 73.7029 3.98254 73.6498 3.94648 73.6365C1.2588 72.714 0.150324 71.1994 0.150324 68.4339C0.150324 48.9229 0.150324 29.4138 0.150324 9.90667C0.137398 9.36314 0.190943 8.82006 0.309764 8.28951C0.894372 5.96247 2.77726 4.60345 5.37953 4.59775C9.59515 4.59775 13.8089 4.59775 18.0245 4.57687C18.377 4.54826 18.7103 4.40492 18.9736 4.16879C19.5145 3.69806 20.0896 3.39437 20.8204 3.40007C22.0978 3.40007 23.3809 3.45321 24.6545 3.37349C25.1843 3.34207 25.6902 3.14261 26.0989 2.80407C28.7562 0.353653 32.1728 0.351755 34.8415 2.80407C35.2491 3.14186 35.7537 3.34128 36.2821 3.37349C37.5557 3.45321 38.8445 3.32604 40.1143 3.43423C40.7582 3.51381 41.3687 3.76561 41.8814 4.16309C42.2459 4.44021 42.5401 4.60345 42.9918 4.60155C47.1828 4.59016 51.3737 4.60155 55.5647 4.60155C56.9939 4.60155 58.2694 4.98116 59.3191 5.98904C60.475 7.10701 60.811 8.4983 60.8091 10.0547C60.7977 29.4708 60.7977 48.8856 60.8091 68.2991C60.8091 68.5591 60.8091 68.8192 60.7901 69.0792C60.6363 71.3246 59.3608 72.9285 57.2084 73.591C57.1037 73.6307 57.0027 73.6796 56.9066 73.7371ZM53.4901 11.987C53.429 11.9598 53.3655 11.9388 53.3003 11.9243C49.7471 11.9243 46.1958 11.911 42.6445 11.9243C42.4238 11.9496 42.2207 12.0566 42.075 12.2242C41.8279 12.5135 41.519 12.7436 41.1712 12.8977C40.8233 13.0518 40.4453 13.1258 40.065 13.1144H20.864C20.4963 13.1181 20.1319 13.0435 19.7952 12.8956C19.4584 12.7477 19.157 12.5298 18.9109 12.2565C18.7006 12.055 18.4237 11.9375 18.1327 11.9262C14.7162 11.9053 11.3129 11.911 7.90397 11.9129C7.76731 11.9129 7.63254 11.9338 7.49588 11.9433V66.4029H53.4844L53.4901 11.987ZM18.3035 7.07095H5.29411C3.50802 7.07095 2.60074 7.99152 2.60074 9.79279V68.5515C2.60074 70.3604 3.54978 71.3132 5.35295 71.3151H55.5931C57.3944 71.3151 58.3435 70.3547 58.3435 68.5478V9.78899C58.3435 7.99341 57.4305 7.07285 55.6444 7.07095C51.5471 7.07095 47.4491 7.07095 43.3505 7.07095C43.1247 7.07095 42.8988 7.09562 42.6691 7.10891V9.46442H43.4986C46.695 9.46442 49.8926 9.46442 53.0915 9.46442C55.0579 9.46442 55.9386 10.3527 55.9386 12.3343C55.9386 30.2382 55.9386 48.1434 55.9386 66.0499C55.9386 68.0087 55.0351 68.897 53.0649 68.897H7.8698C5.90529 68.897 5.0056 68.0049 5.0056 66.0499C5.0056 48.146 5.0056 30.2408 5.0056 12.3343C5.0056 10.3527 5.88062 9.47391 7.85272 9.47201C11.0503 9.47201 14.2486 9.47201 17.4475 9.47201H18.294L18.3035 7.07095ZM40.1181 5.82771C38.835 5.82771 37.5861 5.79734 36.3391 5.82771C35.7366 5.85932 35.1345 5.76093 34.5734 5.53921C34.0124 5.31748 33.5057 4.97762 33.0877 4.54271C31.5863 3.06411 29.3712 3.06601 27.8641 4.54271C27.4452 4.97678 26.938 5.31581 26.3767 5.53685C25.8154 5.75789 25.2132 5.85579 24.6108 5.82391C23.3657 5.78405 22.1168 5.82391 20.8508 5.82391V10.6052H40.1124L40.1181 5.82771Z" fill="black"/>
<path d="M30.379 8.24395V8.22308C30.8269 8.22308 31.2787 8.25344 31.7247 8.22308C32.52 8.15854 32.9205 7.71439 32.8864 6.99502C32.8541 6.3231 32.3587 5.84479 31.6222 5.8277C30.844 5.80682 30.062 5.80493 29.2819 5.8277C28.5493 5.85048 28.0634 6.34588 28.0558 7.02349C28.0482 7.70111 28.4961 8.2003 29.244 8.24395C29.6198 8.26483 29.9994 8.24395 30.379 8.24395Z" fill="white"/>
<path d="M18.3226 64.0588C17.1629 64.0588 16.0032 64.0683 14.8435 64.0588C12.6854 64.0398 11.0948 62.5403 11.0473 60.3765C11.0005 57.9647 11.0005 55.551 11.0473 53.1354C11.0929 50.9792 12.6797 49.4816 14.8435 49.4626C16.3126 49.4493 17.7798 49.4626 19.247 49.4626C20.1809 49.4626 20.7655 49.939 20.7826 50.6793C20.7996 51.4195 20.2245 51.9225 19.2869 51.932C17.8671 51.9472 16.4398 51.932 15.0257 51.932C13.9001 51.932 13.5243 52.3116 13.5224 53.4125C13.5224 55.6598 13.5224 57.9084 13.5224 60.1583C13.5224 61.1756 13.9153 61.5818 14.9422 61.5894C17.2199 61.6046 19.4925 61.6046 21.7601 61.5894C22.7509 61.5894 23.1684 61.1415 23.1893 60.1431C23.2045 59.4332 23.1798 58.7214 23.2026 58.0115C23.2254 57.3017 23.7113 56.7683 24.3718 56.7493C24.5386 56.7431 24.7048 56.7715 24.8599 56.833C25.0151 56.8944 25.1557 56.9874 25.273 57.1061C25.3903 57.2248 25.4816 57.3666 25.5411 57.5225C25.6007 57.6783 25.6271 57.8449 25.6189 58.0115C25.6189 59.0726 25.6872 60.1583 25.5012 61.1908C25.1918 62.8991 23.7398 64.0152 22.0068 64.0512C20.7788 64.0778 19.5488 64.0569 18.3226 64.0588Z" fill="black"/>
<path d="M18.3625 30.1003C17.1781 30.1003 15.9956 30.1003 14.8112 30.1003C12.6929 30.0832 11.1023 28.5951 11.053 26.4693C10.996 24.0322 10.996 21.5944 11.053 19.156C11.1004 17.0302 12.672 15.5402 14.8036 15.5079C16.2936 15.487 17.7854 15.4965 19.2773 15.5079C20.2074 15.5079 20.7958 16.0052 20.7958 16.753C20.7958 17.5009 20.2264 17.9773 19.2773 17.9868C17.8329 17.9982 16.3885 17.9868 14.944 17.9868C13.921 17.9963 13.5394 18.3835 13.5356 19.4141C13.5281 21.6918 13.5281 23.9638 13.5356 26.2301C13.5356 27.2038 13.9399 27.6366 14.9061 27.6442C17.2027 27.6644 19.4994 27.6644 21.7961 27.6442C22.7451 27.6347 23.1741 27.1811 23.2007 26.2358C23.2215 25.5278 23.2007 24.8161 23.212 24.1062C23.2329 23.3128 23.7112 22.8079 24.4078 22.8022C25.1044 22.7965 25.6378 23.3128 25.6321 24.0815C25.6321 25.1653 25.6852 26.2738 25.4878 27.3291C25.1822 28.9577 23.7245 30.0415 22.0713 30.0946H18.3625V30.1003Z" fill="black"/>
<path d="M18.3223 47.0615C17.1625 47.0615 16.0009 47.0805 14.8431 47.0615C12.5768 47.0198 11.0697 45.5127 11.0469 43.254C11.0267 40.9345 11.0267 38.6144 11.0469 36.2937C11.0716 34.0407 12.6033 32.5393 14.8659 32.5185C16.3577 32.5052 17.8477 32.5185 19.3396 32.5185C20.2298 32.5185 20.7898 32.9968 20.7917 33.7199C20.7935 34.4431 20.2222 34.9366 19.3491 34.9404C17.9066 34.9404 16.4621 34.9404 15.0177 34.9404C13.9605 34.9404 13.5353 35.3485 13.5315 36.3773C13.5239 38.6549 13.5239 40.9276 13.5315 43.1951C13.5315 44.2068 13.9472 44.613 14.9551 44.6149C17.2328 44.6149 19.5054 44.6149 21.773 44.6149C22.722 44.6149 23.1661 44.184 23.1965 43.2369C23.2193 42.5042 23.1965 41.7697 23.2117 41.037C23.2364 40.2512 23.7375 39.7634 24.4492 39.7824C24.6097 39.7845 24.7682 39.8189 24.9151 39.8836C25.062 39.9482 25.1944 40.0418 25.3044 40.1587C25.4144 40.2756 25.4997 40.4134 25.5553 40.564C25.6109 40.7146 25.6356 40.8748 25.6279 41.0351C25.6279 42.1189 25.6849 43.2274 25.4913 44.2827C25.1952 45.8942 23.857 46.9647 22.2247 47.0331C20.9264 47.0881 19.6224 47.0444 18.3204 47.0444L18.3223 47.0615Z" fill="black"/>
<path d="M40.2092 40.9744H48.0198C48.2798 40.9674 48.5399 40.9794 48.798 41.0105C49.0957 41.042 49.3714 41.1814 49.5732 41.4025C49.775 41.6235 49.8888 41.9108 49.8932 42.21C49.8836 42.5089 49.7689 42.7947 49.5693 43.0173C49.3696 43.2399 49.0979 43.3848 48.8018 43.4267C48.6129 43.4491 48.4225 43.4561 48.2324 43.4476C42.8583 43.4476 37.4849 43.4476 32.112 43.4476C31.8298 43.4564 31.5479 43.4205 31.2769 43.3413C31.0304 43.2555 30.8188 43.0915 30.6743 42.8743C30.5298 42.657 30.4603 42.3985 30.4764 42.138C30.4925 41.8776 30.5934 41.6296 30.7636 41.4318C30.9339 41.2341 31.1641 41.0974 31.4192 41.0427C31.6977 40.9911 31.9808 40.9688 32.2639 40.9763C34.9098 40.9725 37.5582 40.9719 40.2092 40.9744Z" fill="black"/>
<path d="M40.1392 26.4446H32.2565C32.0203 26.451 31.7839 26.444 31.5485 26.4237C31.2626 26.404 30.9944 26.2782 30.7964 26.0711C30.5984 25.8639 30.4849 25.5903 30.478 25.3039C30.4593 25.0061 30.5507 24.7118 30.7347 24.477C30.9188 24.2422 31.1827 24.0832 31.4764 24.0303C31.6413 24.0096 31.8077 24.0033 31.9737 24.0113C37.4401 24.0113 42.9072 24.0113 48.3749 24.0113C48.6801 24.0003 48.9837 24.0607 49.2613 24.1878C49.499 24.3014 49.6876 24.4972 49.7922 24.7389C49.8969 24.9807 49.9106 25.2521 49.8308 25.5032C49.6675 26.139 49.231 26.4389 48.5818 26.4389H40.1392V26.4446Z" fill="black"/>
<path d="M40.1746 60.3917C37.3826 60.3917 34.5886 60.3917 31.7965 60.3917C31.2518 60.3917 30.7469 60.2266 30.6159 59.6875C30.5198 59.27 30.5735 58.8319 30.7678 58.45C30.9177 58.1899 31.3922 57.9868 31.7168 57.9849C37.3503 57.9584 42.9812 57.9533 48.6097 57.9698C48.7721 57.9633 48.9342 57.9897 49.0861 58.0475C49.2381 58.1052 49.3768 58.193 49.494 58.3056C49.6112 58.4183 49.7045 58.5534 49.7682 58.703C49.8319 58.8525 49.8647 59.0134 49.8647 59.176C49.8647 59.3385 49.8319 59.4994 49.7682 59.649C49.7045 59.7985 49.6112 59.9337 49.494 60.0463C49.3768 60.159 49.2381 60.2468 49.0861 60.3045C48.9342 60.3622 48.7721 60.3887 48.6097 60.3822C45.8081 60.3993 42.9971 60.3898 40.1746 60.3917Z" fill="black"/>
<path d="M18.3642 22.2707C19.7966 20.8383 21.2208 19.4122 22.6368 17.9925C23.3068 17.3243 23.9654 16.6448 24.6487 15.9881C25.2504 15.4073 25.9603 15.3902 26.4728 15.9122C26.9492 16.3981 26.9454 17.1364 26.3988 17.6888C24.03 20.0753 21.6542 22.4517 19.2715 24.818C18.6508 25.431 18.0396 25.3988 17.4 24.7914C17.0564 24.4649 16.7243 24.1271 16.3978 23.7854C15.8512 23.216 15.7961 22.5137 16.2441 22.0107C16.7319 21.4641 17.4095 21.4641 18.0662 22.0107C18.1478 22.0847 18.2351 22.1606 18.3642 22.2707Z" fill="black"/>
<path d="M18.3834 39.2452L23.0963 34.5133C23.6145 33.9952 24.125 33.4656 24.6565 32.9607C25.2525 32.3913 25.9852 32.378 26.4806 32.8924C26.9494 33.3783 26.9361 34.1261 26.397 34.669C24.0282 37.0454 21.6531 39.4199 19.2717 41.7925C18.6719 42.3865 18.0208 42.3619 17.3907 41.7697C17.0642 41.4641 16.7491 41.1414 16.4416 40.8206C15.8513 40.2095 15.7811 39.511 16.2518 38.9928C16.7491 38.4442 17.4419 38.4613 18.1328 39.0402C18.1917 39.0953 18.2638 39.1503 18.3834 39.2452Z" fill="black"/>
<path d="M18.3661 56.2254C19.505 55.0771 20.6438 53.9383 21.7826 52.8089C22.7184 51.8694 23.6522 50.9279 24.5956 49.9978C25.2428 49.3601 25.9243 49.3221 26.469 49.8669C26.9625 50.3699 26.9359 51.1063 26.3494 51.6947C24.0135 54.0458 21.6726 56.3868 19.3265 58.7176C18.6508 59.3895 18.0434 59.3649 17.3525 58.6967C17.0299 58.3854 16.711 58.0666 16.4035 57.7477C15.8341 57.1574 15.798 56.419 16.2934 55.9217C16.7888 55.4244 17.4323 55.4453 18.0662 55.9692L18.3661 56.2254Z" fill="black"/>
<path d="M33.5069 38.6018C32.964 38.6018 32.4212 38.6151 31.8783 38.6018C30.9976 38.5752 30.4681 38.0912 30.4757 37.3453C30.4833 36.5993 30.9957 36.1438 31.8385 36.1267C32.9495 36.1039 34.0592 36.1039 35.1677 36.1267C35.9953 36.1438 36.5419 36.6487 36.5533 37.3434C36.5647 38.0381 36.0029 38.5752 35.1354 38.6037C34.5945 38.6132 34.0497 38.6018 33.5069 38.6018Z" fill="black"/>
<path d="M33.5504 19.1731C34.1388 19.1731 34.7291 19.1579 35.3194 19.1731C35.6408 19.1725 35.9498 19.2973 36.1805 19.5209C36.4113 19.7446 36.5457 20.0495 36.5551 20.3708C36.5526 20.6928 36.4225 21.0007 36.1934 21.227C35.9642 21.4533 35.6548 21.5795 35.3327 21.578C34.1066 21.5969 32.8785 21.6007 31.6524 21.578C31.4926 21.5817 31.3337 21.5522 31.186 21.4912C31.0382 21.4303 30.9047 21.3392 30.794 21.2239C30.6834 21.1086 30.5979 20.9715 30.5431 20.8214C30.4882 20.6712 30.4652 20.5113 30.4755 20.3518C30.4745 20.1982 30.5039 20.0459 30.5619 19.9036C30.6198 19.7614 30.7053 19.632 30.8134 19.5228C30.9215 19.4137 31.0501 19.3269 31.1918 19.2676C31.3334 19.2082 31.4855 19.1774 31.6391 19.1769C32.2749 19.156 32.9127 19.175 33.5504 19.1731Z" fill="black"/>
<path d="M33.5524 53.1316C34.1427 53.1316 34.733 53.1145 35.3214 53.1316C35.4833 53.1251 35.6449 53.1515 35.7964 53.209C35.9479 53.2665 36.0862 53.3541 36.2031 53.4663C36.3199 53.5786 36.4129 53.7134 36.4764 53.8625C36.5399 54.0116 36.5726 54.1719 36.5726 54.334C36.5726 54.496 36.5399 54.6564 36.4764 54.8055C36.4129 54.9546 36.3199 55.0893 36.2031 55.2016C36.0862 55.3139 35.9479 55.4015 35.7964 55.459C35.6449 55.5165 35.4833 55.5429 35.3214 55.5364C34.0953 55.5554 32.8691 55.5573 31.6429 55.5364C31.3248 55.5364 31.0197 55.41 30.7947 55.1851C30.5697 54.9601 30.4434 54.655 30.4434 54.3368C30.4434 54.0187 30.5697 53.7136 30.7947 53.4886C31.0197 53.2636 31.3248 53.1372 31.6429 53.1372C32.2788 53.1126 32.9166 53.1316 33.5524 53.1316Z" fill="black"/>
<path d="M30.3794 8.24395C29.9998 8.24395 29.6202 8.26104 29.2406 8.24395C28.4927 8.2003 28.0429 7.72578 28.0524 7.02349C28.0619 6.3212 28.5459 5.85048 29.2785 5.8277C30.0587 5.80493 30.8407 5.80682 31.6189 5.8277C32.3553 5.84479 32.8507 6.3231 32.883 6.99502C32.9172 7.71439 32.5167 8.15854 31.7214 8.22308C31.2753 8.25914 30.8236 8.22308 30.3756 8.22308L30.3794 8.24395Z" fill="black"/>
</svg>
