<svg width="103" height="73" viewBox="0 0 103 73" fill="none" xmlns="http://www.w3.org/2000/svg">
<path d="M67.8163 72.9896H44.6855C44.745 72.833 44.7795 72.7109 44.8358 72.5983C45.7749 70.7983 46.689 69.0045 47.6 67.2014C47.6442 67.0872 47.725 66.9908 47.8298 66.9274C47.9345 66.8639 48.0574 66.837 48.1791 66.8508C53.5635 66.8508 58.9478 66.8508 64.3321 66.8508C64.4312 66.8549 64.5281 66.8806 64.6163 66.926C64.7044 66.9714 64.7815 67.0355 64.8424 67.1137C65.8222 68.992 66.777 70.8546 67.738 72.7297C67.7703 72.8144 67.7964 72.9012 67.8163 72.9896Z" fill="black"/>
<path d="M61.9533 22.599C61.8434 21.9834 61.601 21.3991 61.2427 20.8867C60.5315 19.8457 59.4539 19.1113 58.225 18.83C58.0629 18.7929 57.8988 18.7658 57.7335 18.7486C57.3482 18.6994 56.9568 18.7323 56.5851 18.845C56.2134 18.9578 55.8697 19.1479 55.5766 19.4028C55.1564 19.7392 54.6496 19.9497 54.1147 20.0101C52.346 20.1792 51.4288 21.2905 51.0156 22.8275C50.7714 23.7354 50.8309 24.7277 50.7683 25.6825C50.7464 26.0237 50.7683 26.368 50.7683 26.7343C51.41 26.5653 51.4601 26.4807 51.4977 25.983C51.524 25.3596 51.5899 24.7386 51.6949 24.1235C51.8734 23.2942 52.3613 22.5642 53.0592 22.082C53.7571 21.5999 54.6126 21.4019 55.4514 21.5284C55.6756 21.5572 55.9033 21.5358 56.1182 21.4658C56.2023 21.4408 56.2824 21.4039 56.3561 21.3562C57.4893 20.6237 58.6319 20.9493 59.7808 21.159C59.809 21.6505 59.6086 21.7037 59.2455 21.6286C58.2813 21.4314 57.3297 21.2936 56.4281 21.9573C56.2398 22.0704 56.0212 22.1229 55.802 22.1075C55.6721 22.1065 55.5425 22.0971 55.4138 22.0794C55.0475 22.0224 54.6735 22.0383 54.3133 22.1262C53.9531 22.2141 53.6138 22.3722 53.3148 22.5915C53.0159 22.8108 52.7631 23.0869 52.5711 23.4041C52.379 23.7212 52.2515 24.0732 52.1958 24.4397C52.058 25.3538 51.961 26.2773 51.8514 27.1726C50.8528 27.3353 50.5147 27.7986 50.7182 28.6407C50.9217 29.4828 51.3443 29.7239 52.0549 29.4985C52.2239 29.9461 52.3679 30.3656 52.5432 30.7506C52.7466 31.1567 52.9767 31.5489 53.2319 31.9246C53.4088 32.1886 53.6193 32.4285 53.858 32.6383C54.4166 33.1385 55.1035 33.4732 55.8417 33.6048C56.5799 33.7364 57.3401 33.6597 58.0371 33.3833C58.7629 33.1026 59.3862 32.6081 59.8246 31.9653C61.1488 30.0213 61.465 27.9145 61.1081 25.6449C61.0796 25.4128 61.1388 25.1783 61.274 24.9875C61.5552 24.6634 61.7618 24.2815 61.8792 23.8688C61.9966 23.4561 62.0219 23.0226 61.9533 22.599ZM58.7853 30.447C58.5356 30.7454 58.2345 30.9967 57.8963 31.1889C57.4628 31.4264 56.9786 31.5563 56.4845 31.5677C55.468 31.4961 54.5197 31.0299 53.8424 30.2686C53.7798 30.1934 53.8173 30.015 53.8048 29.8866H53.8486C53.9676 29.8866 54.0991 29.846 54.1805 29.8866C54.4622 30.0682 54.7032 30.3124 54.985 30.4971C56.0086 31.167 57.0166 31.1607 57.9025 30.519C58.0797 30.3898 58.2443 30.2441 58.394 30.0839C58.513 29.9555 58.7352 29.9273 58.9105 29.8522C58.8792 30.0526 58.9011 30.3093 58.7853 30.447ZM60.6041 23.9294L60.0093 22.862C59.9686 22.7868 59.9279 22.7117 59.8841 22.6366C59.9937 22.502 60.0844 22.3893 60.2441 22.1858L60.3161 22.3141C60.5759 22.7587 60.8107 23.1594 61.0518 23.5851L60.6041 23.9294Z" fill="black"/>
<path d="M34.5461 10.8693V13.2985H11.3809V10.8693H34.5461Z" fill="black"/>
<path d="M33.2282 3.77884V6.22058H10.063V3.77884H33.2282Z" fill="black"/>
<path d="M34.5461 7.02512V9.44807H11.3809V7.02512H34.5461Z" fill="black"/>
<path d="M13.2715 17.1333V14.7103H36.4367V17.1333H13.2715Z" fill="black"/>
<path d="M30.3703 37.8192V40.192H7.15186V37.8192H30.3703Z" fill="black"/>
<path d="M29.5407 33.9531V36.3353H6.34424V33.95L29.5407 33.9531Z" fill="black"/>
<path d="M36.4494 22.4049V24.8216H13.2842V22.4049H36.4494Z" fill="black"/>
<path d="M13.2686 20.9649V18.567H36.4337V20.9649H13.2686Z" fill="black"/>
<path d="M33.3156 63.5325V65.921H10.1191V63.5325H33.3156Z" fill="black"/>
<path d="M33.2995 47.9179H10.1343V45.5075H33.2995V47.9179Z" fill="black"/>
<path d="M11.3745 2.6018V0.219543H34.5397V2.6018H11.3745Z" fill="black"/>
<path d="M31.5099 41.657V44.0424H8.34473V41.657H31.5099Z" fill="black"/>
<path d="M31.5065 26.2616V28.6533H8.34131V26.2616H31.5065Z" fill="black"/>
<path d="M30.7926 30.1089V32.5037H7.62744V30.1089H30.7926Z" fill="black"/>
<path d="M10.1255 51.7245V49.3423H33.3095V51.7245H10.1255Z" fill="black"/>
<path d="M33.3095 53.1927V55.5781H10.1255V53.1927H33.3095Z" fill="black"/>
<path d="M10.1255 62.0581V59.679H33.2907V62.0581H10.1255Z" fill="black"/>
<path d="M50.0474 61.5885C50.5013 62.0675 50.9145 62.44 51.2495 62.872C51.4373 63.172 51.5906 63.4923 51.7065 63.8268C51.3684 63.9614 51.0241 64.2181 50.686 64.215C48.7545 64.1931 47.1048 63.3604 45.3643 62.3054C47.0484 61.8922 48.407 61.1378 49.7656 60.3896C49.8207 60.3627 49.8812 60.3488 49.9425 60.3488C50.0038 60.3488 50.0643 60.3627 50.1194 60.3896C50.5184 60.7177 50.8959 61.0711 51.2495 61.4477C51.4561 61.6793 51.2839 61.8327 51.0209 61.8045C50.6928 61.7498 50.3678 61.6777 50.0474 61.5885Z" fill="black"/>
<path d="M63.2676 62.4212L62.0405 62.7593L61.9623 62.5934C62.0939 62.1993 62.3138 61.8406 62.6051 61.5444C62.8964 61.2482 63.2515 61.0224 63.6433 60.8842C64.2694 62.1708 65.4308 62.9064 66.5358 63.8299C65.2273 64.4779 64.0315 65.2511 62.5069 65.1196C61.8809 65.0664 61.7056 64.7064 62.0343 64.1805C62.3943 63.5889 62.8231 63.0442 63.2676 62.4212Z" fill="black"/>
<path d="M61.048 23.5851L60.6004 23.9294L59.8804 22.6366L60.2404 22.1858" fill="white"/>
<path d="M101.487 57.015H70.1267C70.4977 55.6056 70.7356 54.1645 70.8373 52.7106C70.9249 51.4095 70.8966 50.1031 70.7528 48.807C70.7528 48.6849 70.7246 48.5628 70.7089 48.4438C70.119 43.8103 68.3107 39.416 65.4686 35.7092C65.2516 35.4332 64.9798 35.2051 64.6703 35.0393C63.2851 34.3391 61.7938 33.8727 60.2564 33.6588C60.1483 33.6584 60.0414 33.6814 59.9431 33.7263C59.8447 33.7711 59.7573 33.8367 59.6867 33.9186C59.2422 34.4539 58.8446 35.0268 58.4345 35.5997L57.3483 34.7701C57.3921 35.4181 57.4391 35.8971 57.4484 36.376C57.4484 36.5106 57.3733 36.7266 57.2731 36.7673C56.8599 36.9395 56.4248 37.0616 55.974 37.2087C55.974 36.7266 55.974 36.3072 55.974 35.8908C55.974 35.4745 56.1775 35.0675 55.7517 34.7419L54.6999 35.5997C54.4871 35.3148 54.2742 35.0456 54.0738 34.7795C53.8735 34.5134 53.742 34.3319 53.5949 34.0971C53.1347 33.3552 52.7872 33.3614 51.9796 33.6901C50.2641 34.3851 48.5768 35.1583 46.8457 35.8126C45.7794 36.211 44.8813 36.9622 44.3006 37.9412C43.8748 38.6256 43.5082 39.3451 43.205 40.0919C42.1594 42.7947 41.3793 45.593 40.8759 48.447C40.5159 50.4223 40.3532 52.3976 40.973 54.3541C41.2516 55.2306 41.5678 56.0946 41.8871 57.0181H0.878418V58.2484H5.61789C17.7723 58.2484 29.9299 58.2484 42.0905 58.2484C42.2605 58.2304 42.4316 58.2704 42.5759 58.3619C42.7203 58.4534 42.8294 58.591 42.8857 58.7523C43.2739 59.5569 43.6933 60.3457 44.1379 61.1252C44.4697 61.7106 44.7295 61.8358 45.3493 61.5979C46.6829 61.0877 47.9945 60.5179 49.3156 59.9732C49.3406 59.9732 49.35 59.9169 49.4189 59.7948L48.4391 58.2953H65.406C65.0523 59.009 64.733 59.6758 64.4011 60.3332C64.3066 60.4647 64.2645 60.6268 64.283 60.7877C64.3015 60.9486 64.3794 61.0969 64.5013 61.2035C65.334 61.983 66.1636 62.7687 67.0463 63.6045C67.2788 63.3367 67.4882 63.0498 67.6724 62.7468C68.3298 61.4226 68.9809 60.0922 69.5789 58.7398C69.6187 58.5844 69.7138 58.4489 69.8463 58.3584C69.9788 58.268 70.1396 58.2289 70.2989 58.2484C77.5072 58.265 84.7176 58.265 91.9301 58.2484H102.164V57.0306C101.929 57.0275 101.71 57.015 101.487 57.015ZM56.0397 46.9005L58.0808 46.2463C58.2404 47.0414 58.2404 47.0445 57.5956 47.2543C56.8975 47.4828 56.1931 47.7051 55.4888 47.9336C55.3354 47.151 55.3511 47.1228 56.0397 46.9005ZM56.1118 45.5638L57.9681 44.9597C58.1872 45.711 58.1684 45.7548 57.5142 45.9645L55.5076 46.5906C55.4137 45.8018 55.4137 45.7861 56.1086 45.5638H56.1118ZM55.9771 48.2404L58.1528 47.5391C58.3531 48.3218 58.3531 48.3218 57.6707 48.544L55.3792 49.2891C55.2916 48.4626 55.2916 48.4595 55.974 48.231L55.9771 48.2404ZM55.9177 49.5802L58.2467 48.8289C58.4032 49.6271 58.4032 49.6271 57.6989 49.8557L55.3072 50.632C55.2258 49.7962 55.2258 49.7962 55.9145 49.5802H55.9177ZM55.8738 50.92L58.3437 50.1155C58.4658 51.0828 58.5566 50.8856 57.7709 51.1517C56.9851 51.4178 56.1149 51.6932 55.2822 51.9624C55.1382 51.1611 55.1382 51.1579 55.8707 50.92H55.8738ZM55.7392 52.2755L58.4064 51.4209C58.6568 52.0751 58.4064 52.3131 57.8679 52.4602C56.9789 52.7075 56.1086 53.0143 55.2258 53.296C55.0317 52.5823 55.0818 52.4852 55.7267 52.2755H55.7392ZM55.6923 53.609L58.541 52.6981C58.6286 53.512 58.6286 53.5151 57.9368 53.7405L55.4982 54.5263C55.3761 54.567 55.2477 54.5889 55.1194 54.6233C55.0317 53.8438 55.0443 53.8188 55.6891 53.609H55.6923ZM55.661 54.9395L58.6161 54.0004C58.757 54.8017 58.757 54.8017 58.062 55.024L55.0599 56.0007C54.9848 55.1586 54.9848 55.1555 55.6578 54.9395H55.661ZM57.389 44.6779L55.5764 45.2633C55.495 44.44 55.495 44.44 56.2025 44.2052L57.6488 43.7419L57.8711 43.6699C57.9284 43.8481 57.9672 44.0317 57.9869 44.2178C58.0057 44.4745 57.846 44.5308 57.3858 44.6779H57.389ZM57.389 43.3569L57.2857 43.3882L55.661 43.9141C55.5577 43.0939 55.5577 43.0939 56.2432 42.8717L56.9444 42.6494L57.7771 42.3833C57.9837 43.1127 57.9931 43.1565 57.3952 43.3569H57.389ZM57.2043 42.1047L56.7128 42.2612L55.6985 42.5743C55.5639 41.9701 55.6985 41.6352 56.2871 41.5193H56.3027C56.7667 41.4007 57.2243 41.2586 57.6738 41.0936C57.918 41.8449 57.918 41.8793 57.2105 42.1016L57.2043 42.1047ZM56.4843 37.5186C56.7973 37.4185 57.1104 37.3245 57.4547 37.2056C57.6237 37.9882 57.6237 37.9882 56.9382 38.2136L55.8895 38.5486C55.8081 37.744 55.8112 37.7378 56.4905 37.5155L56.4843 37.5186ZM56.4498 38.8553L57.5267 38.5047C57.7177 39.2905 57.7177 39.2905 57.0102 39.519L55.8707 39.8946C55.7267 39.1308 55.7549 39.0839 56.4561 38.8397L56.4498 38.8553ZM56.4091 40.192L57.6018 39.8039C57.8084 40.5927 57.8084 40.5927 57.1166 40.815L56.1024 41.128L55.7737 41.2313C55.7236 40.8119 55.6985 40.6052 55.7924 40.48C55.8864 40.3548 56.0648 40.3047 56.4154 40.1889L56.4091 40.192ZM66.0164 56.655C65.9979 56.7692 65.9355 56.8717 65.8426 56.9407C65.7496 57.0097 65.6334 57.0397 65.5187 57.0244C59.6314 57.0244 53.742 57.0244 47.8505 57.0244C47.771 57.0289 47.6913 57.0178 47.6161 56.9914C47.5409 56.9651 47.4716 56.9242 47.4123 56.871C46.6516 55.7784 45.7876 54.7047 45.534 53.3805C45.3775 52.5635 45.5121 51.6744 45.6123 50.8292C45.8082 48.6962 46.3495 46.6091 47.2151 44.6498C47.3278 44.4087 47.453 44.1708 47.5751 43.9329L47.7159 43.9485V56.1259C50.5646 56.1259 53.2662 56.1697 55.9615 56.0977C56.6752 56.0758 57.3796 55.7064 58.0839 55.4936C58.2749 55.4372 58.4627 55.3684 58.71 55.2901C58.7444 55.5812 58.7726 55.8223 58.8039 56.0946H65.7441V47.1416L65.9037 47.1165C65.9444 47.2386 65.9914 47.3607 66.0258 47.4859C66.414 48.7406 66.6648 50.0338 66.774 51.3426C66.799 51.6964 66.8084 52.0501 66.8022 52.407C66.7603 53.8534 66.4974 55.2849 66.0227 56.6518L66.0164 56.655Z" fill="black"/>
<path d="M97.7528 32.3315C97.4917 38.0732 94.9901 43.4838 90.7851 47.4021C86.58 51.3204 81.0065 53.4341 75.2607 53.2897C73.7698 53.2419 72.2872 53.048 70.8343 52.7106C70.9218 51.4095 70.8935 50.1031 70.7497 48.807C70.7497 48.6849 70.7216 48.5628 70.7059 48.4438C73.8554 49.3787 77.2015 49.4281 80.3773 48.5866C83.553 47.7452 86.4356 46.0453 88.709 43.6736C90.9824 41.3018 92.5586 38.3498 93.2649 35.1413C93.9711 31.9328 93.7801 28.5918 92.7128 25.4847C91.6454 22.3776 89.7429 19.6244 87.2141 17.5273C84.6852 15.4301 81.6276 14.0699 78.3766 13.5959C75.1257 13.1219 71.807 13.5523 68.7846 14.8401C65.7621 16.1278 63.1528 18.2231 61.2426 20.896C60.5314 19.8551 59.4538 19.1207 58.2249 18.8393C58.0628 18.8023 57.8987 18.7751 57.7334 18.758C60.4577 14.8424 64.3812 11.9187 68.9123 10.4279C73.4434 8.93705 78.3364 8.95992 82.8534 10.493C87.3704 12.0261 91.2664 14.9863 93.954 18.9272C96.6415 22.8681 97.9748 27.576 97.7528 32.3409V32.3315Z" fill="black"/>
<path d="M74.5498 26.3179C74.5498 24.2748 74.5498 22.2317 74.5498 20.1886C74.5498 18.9145 75.3856 18.038 76.5846 18.0411C77.7835 18.0442 78.6288 18.9301 78.6288 20.1917C78.6288 23.8293 78.6288 27.4679 78.6288 31.1075C78.6151 31.272 78.6439 31.4373 78.7124 31.5875C78.7809 31.7377 78.8869 31.8677 79.0201 31.9652C81.3616 33.8435 83.6844 35.7218 86.0134 37.6C86.3355 37.8342 86.58 38.1594 86.7156 38.5338C86.8511 38.9081 86.8715 39.3145 86.7741 39.7005C86.7034 40.0648 86.529 40.401 86.2719 40.6686C86.0148 40.9363 85.6859 41.124 85.3247 41.2094C85.023 41.3028 84.7028 41.3197 84.393 41.2585C84.0831 41.1973 83.7933 41.0599 83.5498 40.8588C80.7846 38.632 78.0246 36.4011 75.2698 34.1659C75.0326 33.9726 74.8442 33.7263 74.7197 33.4468C74.5952 33.1673 74.5381 32.8625 74.5529 32.5569C74.5561 30.472 74.5498 28.3934 74.5498 26.3179Z" fill="black"/>
</svg>
