<?xml version="1.0" encoding="utf-8"?>
<!-- Generator: Adobe Illustrator 24.3.0, SVG Export Plug-In . SVG Version: 6.00 Build 0)  -->
<svg version="1.1" id="Layer_1" xmlns="http://www.w3.org/2000/svg" xmlns:xlink="http://www.w3.org/1999/xlink" x="0px" y="0px"
	 viewBox="0 0 480 181.4" style="enable-background:new 0 0 480 181.4;" xml:space="preserve">
<style type="text/css">
	.st0{fill:#FCB31E;}
	.st1{fill:#FFFFFF;}
	.st2{fill:#00A651;}
	.st3{fill:url(#SVGID_1_);}
	.st4{fill:#ED2024;}
	.st5{fill:none;stroke:#FFFFFF;stroke-width:15;stroke-miterlimit:10;}
	.st6{fill:#3953A4;}
	.st7{fill:none;stroke:#000000;stroke-width:21;stroke-miterlimit:10;}
	.st8{fill:#D9E13C;}
	.st9{fill:#48B869;}
	.st10{fill:url(#SVGID_4_);}
	.st11{fill:url(#SVGID_5_);}
	.st12{fill:#414099;}
	.st13{fill:url(#SVGID_6_);}
	.st14{fill:#4A51A2;}
	.st15{fill:url(#SVGID_7_);}
	.st16{fill:url(#SVGID_8_);}
	.st17{fill:#46B971;}
	.st18{fill:url(#SVGID_9_);}
	.st19{fill:url(#SVGID_10_);}
	.st20{fill:url(#SVGID_11_);}
	.st21{fill:url(#SVGID_12_);}
	.st22{fill:url(#SVGID_13_);}
	.st23{fill:url(#SVGID_14_);}
	.st24{fill:url(#SVGID_15_);}
	.st25{fill:url(#SVGID_16_);}
	.st26{fill:url(#SVGID_17_);}
	.st27{fill:url(#SVGID_18_);}
	.st28{fill:url(#SVGID_19_);}
	.st29{fill:url(#SVGID_20_);}
	.st30{fill:url(#SVGID_21_);}
	.st31{fill:url(#SVGID_22_);}
	.st32{fill:url(#SVGID_23_);}
	.st33{fill:url(#SVGID_24_);}
	.st34{fill:url(#SVGID_25_);}
	.st35{fill:#5E56A5;}
	.st36{fill:#6560AA;}
	.st37{fill:#7270B4;}
	.st38{fill:#8280BD;}
	.st39{fill:url(#SVGID_26_);}
	.st40{fill:url(#SVGID_27_);}
	.st41{fill:url(#SVGID_28_);}
	.st42{fill:url(#SVGID_29_);}
	.st43{opacity:0.1;}
	.st44{fill:#3953A4;stroke:#FFFFFF;stroke-width:6;stroke-miterlimit:10;}
	.st45{fill:#3953A4;stroke:#FFFFFF;stroke-width:8;stroke-miterlimit:10;}
	.st46{fill:#00A651;stroke:#FFFFFF;stroke-width:8;stroke-miterlimit:10;}
	.st47{fill:#FCB31E;stroke:#FFFFFF;stroke-width:8;stroke-miterlimit:10;}
</style>
<g>
	<g>
		<g>
			<path class="st1" d="M143.9,51.6l-26-26c-17.2-17.2-45.1-17.2-62.2,0L27.7,53.4c-17.2,17.2-17.2,45.1,0,62.2l27.9,27.9
				c17.2,17.2,45.1,17.2,62.2,0l9.1-9.1c-0.4-2.3-0.5-4.7-0.5-7.1V87.9C126.4,73.2,133.2,60.1,143.9,51.6z M115.3,128.5H86.8v-0.1h0
				c-10.7,0-20.4-4.9-26.7-12.6c-4.8-5.9-7.8-13.3-7.9-21.5V78.5c0.1-8.2,3.1-15.6,7.9-21.5c6.4-7.7,16-12.6,26.7-12.6h9v15.9h-9
				v-0.1h0c-10.2,0-18.5,8.2-18.8,18.3v15.7c0.3,10.1,8.6,18.3,18.8,18.3h0v0h28.4V128.5z"/>
			<path class="st1" d="M145.7,115.7l-14,14c0-0.8-0.1-1.6-0.1-2.3V87.9c0-13.2,6.2-25,15.9-32.6C162.9,72.6,162.3,99.1,145.7,115.7
				z"/>
		</g>
	</g>
	<g>
		<g>
			<path class="st1" d="M237.1,117.5c-17.6-17.6-18.2-45.8-1.8-64.1c-6.6-4.4-14.4-6.9-22.9-6.9H173c-9.6,0-18.5,3.3-25.5,8.8
				c-9.7,7.6-15.9,19.4-15.9,32.6v39.5c0,0.8,0,1.6,0.1,2.3c1.2,21.7,19.3,39.1,41.3,39.1h39.5c20.6,0,37.8-15.2,40.9-35
				L237.1,117.5z M219.6,148.6h-19.2v0c-10.7-0.1-20.2-5-26.5-12.6c-4.8-5.9-7.8-13.3-7.9-21.5c0-0.2,0-0.4,0-0.6V64.4h15.9v49.5
				c0,0.2,0,0.3,0,0.5v0c0.3,10.1,8.6,18.3,18.7,18.3h19.1V148.6z"/>
			<path class="st1" d="M256.5,87.9v39.5c0,0.7,0,1.4-0.1,2.1l-2.6-2.6l-13-13c-15.7-15.7-16.1-41-1.3-57.2c0.4-0.5,0.8-0.9,1.3-1.3
				l0.6-0.6C250.7,62.8,256.5,74.7,256.5,87.9z"/>
			<path class="st1" d="M243.2,52.9l-2.4,2.4c-0.4,0.4-0.9,0.9-1.3,1.3c8.8,7.6,14.3,18.8,14.3,31.3v39l2.6,2.6l2.4,2.4
				c0.1-1.5,0.2-3,0.2-4.5V87.9C259.1,74,253,61.4,243.2,52.9z"/>
		</g>
	</g>
	<g>
		<g>
			<path class="st1" d="M312.6,102.5L312.6,102.5c0,5.6-4.5,10.1-10.1,10.1h-15.8c-5.6,0-10.1-4.5-10.1-10.1
				c0-5.6,4.5-10.1,10.1-10.1h15.8c5.4,0,9.8,4.2,10.1,9.6V102.5z"/>
			<path class="st1" d="M353.2,53.3l-25.9-25.9c-8.1-8.1-18.7-12.1-29.3-12.1s-21.2,4-29.3,12.1l-27.9,27.9
				c-0.4,0.4-0.9,0.9-1.3,1.3c-14.9,16.2-14.4,41.5,1.3,57.2l13,13l2.6,2.6l12.3,12.3c16.1,16.1,42.4,16.1,58.5,0l10.6-10.6
				c-0.1-1.2-0.2-2.5-0.2-3.8V87.9C337.7,74.2,343.7,61.8,353.2,53.3z M328.4,102.5c0,14.3-11.6,26-26,26h-15.8
				c-14.3,0-26-11.6-26-26s11.6-26,26-26h15.8c3.6,0,7,0.7,10.1,2v0c-0.3-10.1-8.6-18.3-18.7-18.3h-17.3V44.4H294v0
				c10.7,0.1,20.2,5,26.5,12.6c4.8,5.9,7.8,13.3,7.9,21.5c0,0.2,0,0.4,0,0.6V102.5z"/>
			<path class="st1" d="M369.5,90.8L369.5,90.8c-1.3,9.1-5.4,17.9-12.4,24.9l-14,14c0-0.8-0.1-1.6-0.1-2.3V87.9
				c0-12.3,5.4-23.3,13.9-30.9c0.7-0.6,1.3-1.2,2-1.7c5.6,6.3,9.1,13.8,10.4,21.7v9.9c0,0.6,0,1.3,0.1,1.9v0c0,0.1,0,0.2,0,0.3
				C369.4,89.7,369.4,90.2,369.5,90.8z"/>
			<path class="st1" d="M369.5,91.3C369.5,91.3,369.5,91.3,369.5,91.3L369.5,91.3c0-0.2,0-0.4-0.1-0.5v0c-0.1-0.5-0.1-1-0.1-1.6
				c0-0.1,0-0.2,0-0.3v0c0-0.6-0.1-1.3-0.1-1.9V67.4c-1.9-4.9-4.7-9.5-8.3-13.6c-0.7,0.5-1.4,1-2.1,1.6s-1.4,1.1-2,1.7
				c14.5,16.2,13.9,41.2-1.6,56.8l-12.2,12.2v1.3c0,0.8,0,1.6,0.1,2.3c0.1,1.1,0.2,2.3,0.3,3.4l15.6-15.6
				c5.9-5.9,9.8-12.9,11.9-20.4C370.2,95.3,369.8,93.3,369.5,91.3z"/>
		</g>
	</g>
	<g>
		<g>
			<path class="st1" d="M423.8,46.5h-39.5c-8.7,0-16.7,2.7-23.4,7.3c-0.7,0.5-1.4,1-2.1,1.6s-1.4,1.1-2,1.7
				c-8.5,7.6-13.9,18.6-13.9,30.9v39.5c0,0.8,0,1.6,0.1,2.3c0.1,1.1,0.2,2.3,0.3,3.4c2.8,20.1,20.1,35.7,41,35.7h39.5
				c22.8,0,41.4-18.6,41.4-41.4V87.9C465.2,65.1,446.6,46.5,423.8,46.5z M438.9,113.9c0,0.2,0,0.4,0,0.6c-0.1,8.2-3.1,15.6-7.9,21.5
				c-6.3,7.7-15.8,12.5-26.5,12.6v0h-19.2v-15.9h19.1c9.6,0,17.5-7.2,18.6-16.5c0,0-0.1,0-0.1,0.1c-5.4,3.5-11.8,5.5-18.7,5.5
				c-6.8,0-13.1-2-18.5-5.3c-0.1,0-0.1-0.1-0.2-0.1c0,0,0,0,0,0c-0.1,0-0.1-0.1-0.2-0.1c-6.7-4.4-11.9-11.1-14.3-18.9
				c-0.6-1.9-1-3.8-1.3-5.8c0,0,0,0,0-0.1v0c0-0.1,0-0.3-0.1-0.4v0c-0.1-0.5-0.1-1-0.1-1.6c0-0.1,0-0.2,0-0.3v0
				c0-0.6-0.1-1.3-0.1-1.9V64.4h15.9v22.5c0,0.6,0,1.1,0.1,1.7v0.1c0,0.2,0,0.4,0.1,0.6c1.1,9.3,9.1,16.6,18.7,16.6
				c9.7,0,17.6-7.3,18.7-16.6c0.1-0.7,0.1-1.5,0.1-2.3V64.4h15.9V113.9z"/>
		</g>
	</g>
</g>
</svg>
