<svg width="212" height="45" viewBox="0 0 212 45" fill="none" xmlns="http://www.w3.org/2000/svg">
<path d="M6.58704 11.5186L0.124512 22.7366L6.52951 33.8203L12.9153 44.9041L25.9554 44.9425L38.9764 45L45.3047 34.0121C48.7948 27.9908 51.6329 22.8708 51.6138 22.6599C51.6138 22.4489 48.7565 17.3481 45.2663 11.346L38.938 0.41563L25.9938 0.358101L13.0496 0.319748L6.58704 11.5186ZM29.3881 18.096C30.4044 20.1862 31.7276 22.9092 32.3029 24.1364C32.8974 25.3829 33.4343 26.3992 33.511 26.3992C33.5686 26.3992 34.8726 23.7913 36.3875 20.5889C37.9025 17.4056 39.2448 14.6635 39.3983 14.51C39.5708 14.3183 39.7051 14.2991 39.8585 14.4525C39.9736 14.5676 40.5489 17.8467 41.105 21.7394C41.6803 25.613 42.2364 29.0263 42.3515 29.314C42.5049 29.7167 42.7733 29.9084 43.3678 30.0618C43.7897 30.1769 44.2691 30.3111 44.4034 30.3495C44.5184 30.3878 44.6335 30.5221 44.6335 30.6371C44.6335 30.7905 43.9431 30.8289 42.083 30.7714C39.3599 30.6755 38.8997 30.5796 39.2832 30.1194C39.4558 29.9084 39.3791 28.7962 38.8613 25.0377L38.2285 20.2245L37.6915 21.3367C37.3847 21.9695 36.2341 24.3474 35.141 26.6485C33.8754 29.2948 33.0316 30.8097 32.8782 30.7714C32.533 30.6371 31.2098 28.2401 29.3497 24.2515C28.0265 21.4518 27.643 20.7806 27.5279 21.0874C27.4512 21.3175 27.1636 23.3502 26.8759 25.5938C26.5116 28.5469 26.4157 29.7358 26.5691 29.8893C26.6841 30.0043 27.106 30.1577 27.4896 30.2152C28.9853 30.4645 28.084 30.7138 25.5527 30.7714C23.3858 30.8097 22.9639 30.7714 22.9639 30.5412C22.9639 30.3687 23.194 30.2344 23.5775 30.1961C24.0186 30.1577 24.2679 30.0043 24.4405 29.6591C24.5555 29.3907 25.15 25.9582 25.7445 22.0271C26.339 18.096 26.8567 14.7593 26.9334 14.6059C27.2019 13.8772 27.6622 14.5484 29.3881 18.096ZM20.7394 14.9511L21.8708 15.1812L21.8325 17.0605C21.8133 18.096 21.7366 19.0739 21.679 19.2274C21.4873 19.7259 21.1613 19.3999 21.0079 18.5754C20.7394 16.9838 19.7422 16.2359 17.4027 15.8715C14.2577 15.373 11.8798 16.5811 10.9401 19.1315C9.42518 23.2352 11.2278 27.9141 14.833 29.2564C16.0219 29.7167 17.978 29.7934 19.1669 29.429C19.9915 29.1797 21.238 27.9525 21.238 27.3772C21.238 26.9361 21.5832 26.6677 21.8133 26.8978C22.0626 27.1471 21.6215 29.8125 21.2572 30.2536C20.8161 30.7905 19.7422 30.9823 17.115 31.0015C13.3756 31.0015 11.2661 30.2536 9.34847 28.2018C8.02528 26.7636 7.46916 25.4596 7.29657 23.3502C7.10481 20.8381 7.89105 18.6329 9.54024 16.9838C10.6141 15.9099 12.0332 15.162 13.644 14.7785C15.0056 14.4717 18.9368 14.5676 20.7394 14.9511Z" fill="#0088AA"/>
<path d="M129.49 1.35536C126.786 2.65933 123.699 5.19057 122.913 6.76301C122.702 7.16571 121.532 10.5215 120.285 14.2225L118.023 20.9341L116.949 22.0463C115.856 23.1777 114.226 24.2899 113.631 24.2899C112.768 24.2899 112.864 23.7147 114.532 18.7672C115.434 16.1209 116.162 13.8198 116.162 13.628C116.162 13.3404 115.99 13.3212 114.206 13.4171C108.338 13.8006 103.257 16.4278 100.591 20.4739C99.4596 22.1806 97.12 24.0982 96.142 24.0982C95.6434 24.0982 95.2407 23.5421 95.3749 22.986C95.6051 22.0463 96.8324 18.8631 97.8679 16.4853C98.4432 15.2005 98.9034 14.0499 98.9034 13.954C98.9034 13.8198 98.2898 13.7431 97.2542 13.7431C95.3174 13.7431 94.301 13.4746 93.6874 12.8418L93.2655 12.4008L93.6682 12.1131C94.3777 11.6146 94.9147 10.5599 94.838 9.77365C94.7805 9.06414 94.7613 9.04496 93.9367 8.98743C92.3642 8.87238 90.8492 10.4832 90.8492 12.2857C90.8492 12.8802 90.9835 13.1678 91.6163 13.8006L92.3834 14.5677L91.2903 16.0251C87.8002 20.704 85.6907 22.6983 82.7375 24.1941C77.4831 26.8212 73.2835 26.1692 71.4425 22.4107C70.8288 21.1642 70.8097 21.0684 70.8097 18.7289C70.8097 16.8113 70.9056 16.0251 71.2507 14.7978C72.2671 11.2694 74.7409 7.20406 77.0037 5.40151C79.1707 3.67566 81.8746 2.73604 83.3895 3.17709C84.6552 3.56061 85.4798 4.96046 85.4798 6.74384C85.4798 8.12451 85.3839 8.22039 82.9485 9.52436C81.6828 10.2147 80.513 10.9626 80.3596 11.1927C80.0145 11.6913 80.187 12.4008 80.6473 12.4008C81.2801 12.3816 89.1809 8.10534 89.5836 7.56841C90.0438 6.91642 90.2164 5.05634 89.9096 4.09754C89.5452 3.0045 88.222 1.94982 86.6304 1.45124C85.4414 1.08689 84.9428 1.04854 83.1019 1.14442C75.3929 1.50877 68.4318 7.56841 65.7854 16.1976C65.3443 17.6742 65.2676 18.1919 65.2676 20.6465C65.2484 23.101 65.306 23.5613 65.6895 24.5009C66.5333 26.6102 67.9907 28.0676 70.0234 28.8155C70.8097 29.1031 71.5 29.1798 73.4944 29.1607C75.6805 29.1607 76.1599 29.1031 77.4831 28.6429C82.4691 26.9171 86.8605 23.4654 91.041 17.981C93.5532 14.6827 93.3614 14.8937 93.975 15.0279C94.2627 15.0854 94.4928 15.2197 94.4928 15.3155C94.4928 15.4114 93.975 16.6387 93.323 18.0194C91.6355 21.6436 90.8109 24.2324 90.6958 26.1308C90.6191 27.5307 90.6575 27.7416 91.0218 28.106C91.9807 29.0648 93.4956 28.3744 97.3118 25.2104C98.1747 24.5009 98.9034 23.9064 98.9418 23.9064C98.9801 23.9064 98.961 24.5201 98.9418 25.2679C98.8651 26.802 99.076 27.454 99.8814 28.2402C101.013 29.3141 102.969 28.7963 106.421 26.476C107.284 25.9007 108.012 25.4405 108.051 25.4405C108.089 25.4405 108.07 25.7281 108.012 26.0733C107.801 27.128 108.204 28.2402 108.875 28.5087C109.412 28.7388 109.585 28.7004 110.85 28.0676C111.618 27.6841 113.363 26.476 114.724 25.383C116.105 24.2708 117.236 23.4462 117.275 23.5421C117.313 23.6188 116.642 26.0925 115.779 29.0264C114.226 34.2998 114.206 34.3766 114.302 36.0832C114.398 38.02 115.108 40.3978 116.239 42.6798C117.371 44.9042 118.253 45.2494 119.537 44.0029C120.88 42.7181 121.858 39.9184 122.318 35.9682C122.548 33.9547 122.472 27.3965 122.203 26.7445C122.107 26.4952 122.241 26.3801 122.913 26.2075C123.948 25.9199 124.964 25.4022 126.364 24.4625C126.978 24.0407 127.496 23.7147 127.553 23.7147C127.592 23.7147 127.496 24.2516 127.342 24.9036C126.748 27.454 127.438 28.8538 129.183 28.6237C130.334 28.4703 132.789 27.2431 134.476 25.9774C136.049 24.8077 139.788 21.2218 140.613 20.0904C140.939 19.6685 141.245 19.3042 141.303 19.3042C141.36 19.3042 141.802 20.0712 142.281 21.0108C144.084 24.4817 143.911 26.5911 141.821 26.5911C141.092 26.5911 140.919 26.4952 140.037 25.5364C139.481 24.9419 138.887 24.4817 138.657 24.4817C138.158 24.4817 136.605 25.5172 136.221 26.1117C135.838 26.7061 135.838 27.5307 136.202 28.0676C136.796 28.9114 138.963 29.199 141.092 28.7196C142.722 28.3553 146.174 26.5527 148.149 25.057C149.146 24.3091 149.971 23.7147 150.009 23.753C150.048 23.7914 149.779 24.7885 149.415 25.9774C149.05 27.1664 148.763 28.2786 148.763 28.432C148.763 28.6429 149.165 28.7004 150.872 28.7004C152.675 28.7004 153.001 28.6621 153.154 28.3553C153.25 28.1827 153.729 26.6678 154.209 24.9803C155.225 21.5286 155.781 20.5314 157.622 18.8248C158.926 17.6167 159.885 17.0797 160.365 17.2715C160.825 17.4441 160.652 18.307 159.099 23.1202C158.37 25.3638 157.718 27.5499 157.661 27.9717L157.526 28.7196L159.617 28.6621L161.688 28.6046L162.838 25.1337C163.51 23.1394 164.257 21.2985 164.583 20.8191C166.022 18.7289 168.917 16.4086 169.301 17.0414C169.531 17.4057 169.358 18.2495 168.208 21.8546C167.652 23.6188 167.134 25.5747 167.057 26.2075C166.674 29.6401 168.879 29.3908 173.558 25.498L175.035 24.2516V25.4789C175.035 27.5499 175.974 28.758 177.585 28.758C178.621 28.758 180.289 28.0101 182.494 26.5144C183.376 25.9199 184.144 25.4405 184.201 25.4405C184.239 25.4405 184.239 25.7281 184.163 26.0541C184.009 27.0129 184.278 27.9526 184.853 28.3744C185.294 28.7004 185.428 28.7196 186.08 28.5087C187.02 28.2019 189.436 26.6102 191.431 24.9803C192.274 24.2899 192.984 23.7914 193.022 23.8872C193.061 23.9831 192.811 24.9228 192.505 25.9391C191.584 28.8347 191.507 28.7004 194 28.7004H196.091L196.282 28.1635C196.397 27.8759 196.858 26.4377 197.28 24.9803C198.296 21.5669 198.564 21.0492 200.29 19.285C201.767 17.7701 203.071 16.9647 203.435 17.329C203.723 17.6167 203.397 19.0549 202.342 22.4299C200.712 27.5882 201 29.2182 203.397 28.4128C205.276 27.7992 210.646 23.4845 211.087 22.2381C211.47 21.1834 211.125 21.1834 209.84 22.2765C208.613 23.312 207.98 23.6188 207.328 23.4845C206.523 23.3311 206.58 22.9093 207.788 19.4576C209.495 14.5868 209.591 13.8965 208.594 13.3596C207.443 12.7459 203.167 14.7978 200.367 17.3099C199.83 17.7893 199.389 18.1344 199.389 18.0769C199.389 18.0194 199.734 17.0989 200.156 16.0442C201.077 13.7431 201.096 13.5513 200.405 13.5705C199.178 13.5897 197.03 14.0883 196.704 14.4334C196.512 14.6444 195.822 16.2552 195.17 18.0577C194 21.2218 193.943 21.3368 192.888 22.3148C191.642 23.4845 190.012 24.405 189.551 24.2324C188.976 24.0215 189.187 23.1202 190.855 18.2687C192.217 14.28 192.428 13.513 192.179 13.4171C191.603 13.2062 188.305 13.5513 186.406 14.0307C181.977 15.1621 178.525 17.5783 176.396 21.0492C175.284 22.9093 173.04 24.2132 172.657 23.2161C172.523 22.8517 172.887 21.1642 173.884 17.7893C174.824 14.6636 174.862 13.7431 174.133 13.1678C173.711 12.8418 173.462 12.7843 172.829 12.8802C171.084 13.1678 169.013 14.4334 166.731 16.6195L165.216 18.0385L165.389 17.2907C165.466 16.8688 165.542 15.9867 165.542 15.3539C165.542 13.7623 165.197 13.3596 163.836 13.3596C162.186 13.3596 160.154 14.5101 157.757 16.7729C157.028 17.4633 156.395 17.981 156.337 17.9235C156.299 17.8851 156.644 16.9839 157.105 15.9484C157.967 14.0307 158.083 13.6472 157.833 13.4938C157.622 13.3596 154.362 13.8965 153.902 14.1458C153.461 14.3759 153.288 14.7594 151.908 18.5179C151.102 20.7232 150.738 21.4327 150.163 22.0272C149.357 22.8517 147.478 24.2132 147.324 24.079C147.286 24.0215 147.363 23.5613 147.516 23.0435C148.111 21.1067 147.765 19.7452 146.174 17.6742C144.908 16.0251 144.544 15.3347 144.544 14.6636C144.544 14.2033 144.64 14.1458 145.503 13.954C147.535 13.513 149.146 12.209 149.146 10.9817C149.146 9.94624 148.628 9.63942 147.094 9.75448C144.774 9.92706 142.396 11.557 141.341 13.7239C140.881 14.6444 140.804 15.0471 140.785 16.562L140.766 18.3454L139.27 20.052C137.525 22.0655 136.183 23.2161 134.86 23.8297C133.268 24.5776 132.079 24.3283 132.079 23.2544C132.079 23.0051 132.654 21.2793 133.345 19.3809C134.035 17.5016 134.687 15.7182 134.783 15.4498C134.956 15.0087 135.262 14.8553 137.487 14.2033C139.711 13.5513 140.037 13.4171 140.344 12.8994C140.728 12.2665 140.996 11.2886 140.843 11.116C140.785 11.0585 139.73 11.3269 138.503 11.7296C137.257 12.1131 136.221 12.3816 136.164 12.3241C136.106 12.2665 136.681 10.6941 137.429 8.81485C138.177 6.9356 138.791 5.28645 138.791 5.15222C138.791 4.80705 138.12 4.86458 136.375 5.40151C135.051 5.80421 134.725 5.97679 134.419 6.51372C133.901 7.33829 131.043 14.2609 129.586 18.1536C128.282 21.7395 128.071 22.008 125.732 23.2353C124.83 23.7147 124.121 23.9448 123.584 23.9448C122.05 23.9831 121.57 23.3503 121.8 21.7012C121.915 20.9341 122.146 20.6273 123.929 18.8248C127.112 15.6032 129.739 11.8638 131.446 8.08616C132.693 5.36316 133.038 2.56345 132.271 1.31701C131.772 0.511612 131.216 0.511612 129.49 1.35536ZM129.739 4.19342C130.085 4.53859 130.008 6.14938 129.567 7.45335C129.068 8.94909 127.63 11.7871 126.652 13.2637C125.156 15.4881 123.066 17.8276 123.066 17.2907C123.066 16.8305 126.077 8.25875 126.69 6.97395C127.86 4.53859 129.03 3.4839 129.739 4.19342ZM110.198 18.7672C108.549 23.5613 108.645 23.3887 106.996 24.4817C104.81 25.9583 103.889 25.6898 103.889 23.5804C103.889 20.704 106.478 17.214 109.566 15.9484C111.502 15.143 111.483 15.0471 110.198 18.7672ZM186.157 19.3233C185.409 21.4327 184.776 23.2544 184.719 23.3311C184.431 23.8105 181.651 25.4405 181.152 25.4405C179.138 25.4405 179.982 20.7424 182.475 18.1919C183.511 17.1181 184.585 16.3894 185.927 15.8525C187.634 15.1621 187.634 15.0663 186.157 19.3233ZM120.861 30.6756C120.861 34.9518 120.65 36.5243 119.768 38.7487C118.962 40.8005 118.023 41.3758 117.409 40.2061C116.853 39.113 117.179 36.8503 118.579 32.0946C120.746 24.7693 120.861 24.6926 120.861 30.6756Z" fill="#0088AA"/>
<path d="M127.016 36.2174C126.652 36.5434 126.383 37.157 126.038 38.4802C125.77 39.4773 125.559 40.3594 125.559 40.4361C125.559 40.7429 126.211 41.1648 126.69 41.1648C127.4 41.1648 127.476 41.2607 127.227 42.0469C127.035 42.6989 127.016 42.6989 125.904 42.6989C125.137 42.6989 124.792 42.7756 124.792 42.929C124.792 43.0632 124.734 43.3701 124.677 43.6002C124.562 44.0221 124.6 44.0412 126.096 44.0412C127.553 44.0412 127.649 44.0221 128.109 43.4851C128.665 42.814 129.164 40.7046 128.876 40.2252C128.78 40.0526 128.378 39.8992 127.975 39.8608C127.17 39.7841 127.15 39.6499 127.63 38.1925L127.956 37.2337L128.972 37.1762C129.797 37.1187 129.969 37.0611 129.969 36.7543C129.969 36.5626 130.027 36.2749 130.084 36.1023C130.18 35.8339 130.008 35.7955 128.857 35.7955C127.726 35.7955 127.419 35.8722 127.016 36.2174Z" fill="#0088AA"/>
<path d="M130.641 36.4092L130.391 37.042L131.849 37.1571L131.274 39.3048C130.967 40.4937 130.545 42.047 130.353 42.7565L129.989 44.0605L131.561 43.9454L133.364 37.2338L134.131 37.1762C134.86 37.1187 134.917 37.0804 134.994 36.4476L135.071 35.7956H133H130.909L130.641 36.4092Z" fill="#0088AA"/>
<path d="M135.876 36.2366C135.473 36.6776 133.824 42.2579 133.805 43.1975C133.805 43.8686 134.188 44.0412 135.742 44.0412C137.084 44.0412 137.256 44.0029 137.602 43.581C138.043 42.9865 139.615 37.2337 139.519 36.4667L139.462 35.8914L137.87 35.8339C136.394 35.7763 136.259 35.8147 135.876 36.2366ZM137.889 37.2721C137.947 37.368 137.659 38.5952 137.276 40.0143C136.604 42.488 136.566 42.603 136.068 42.6606C135.396 42.7373 135.396 42.5263 135.914 40.5895C136.873 37.0611 136.854 37.1378 137.352 37.1378C137.602 37.1378 137.851 37.1954 137.889 37.2721Z" fill="#0088AA"/>
<path d="M140.804 36.0256C140.747 36.1599 140.286 37.9049 139.749 39.9184C139.213 41.9127 138.733 43.6769 138.695 43.8111C138.618 44.0029 138.81 44.0412 139.404 44.0029C140.152 43.9453 140.229 43.8878 140.382 43.2742C140.919 41.1073 140.881 41.1648 141.475 41.1648C142.147 41.1648 142.185 41.3374 141.763 42.8907C141.61 43.4659 141.475 43.9645 141.475 43.9837C141.475 44.0221 141.821 44.0412 142.223 44.0412H142.971L143.393 42.4688C143.719 41.2415 143.777 40.8196 143.604 40.532C143.431 40.2635 143.451 40.091 143.757 39.7074C143.968 39.439 144.275 38.5952 144.467 37.809C144.927 35.8914 144.831 35.7955 142.588 35.7955C141.399 35.7955 140.862 35.8722 140.804 36.0256ZM143.01 37.3488C143.01 37.7515 142.568 39.3431 142.377 39.5732C142.223 39.7841 141.284 39.9375 141.284 39.765C141.284 39.6883 141.84 37.7707 141.955 37.368C142.051 37.0803 143.01 37.0611 143.01 37.3488Z" fill="#0088AA"/>
<path d="M146.212 36.2174C145.886 36.5434 145.522 37.5981 144.851 40.1101C144.333 42.0086 143.873 43.6769 143.834 43.7919C143.758 43.9645 143.969 44.0412 144.525 44.0412C145.273 44.0412 145.311 44.0221 145.503 43.2167C146.001 41.2607 146.078 41.1648 146.672 41.1648C147.133 41.1648 147.229 41.2415 147.152 41.4908C147.094 41.6826 146.96 42.2003 146.845 42.6606C146.73 43.1208 146.577 43.6194 146.519 43.7728C146.442 43.9837 146.596 44.0412 147.19 44.0412C147.766 44.0412 147.996 43.9453 148.072 43.6961C149.223 39.6883 149.952 36.4859 149.779 36.2174C149.626 35.9681 149.242 35.8722 148.111 35.8339C146.807 35.7763 146.615 35.8339 146.212 36.2174ZM148.187 37.4447C148.187 37.6172 148.053 38.2117 147.881 38.787C147.612 39.7458 147.535 39.8225 147.018 39.8225C146.557 39.8225 146.461 39.7458 146.538 39.4773C146.596 39.3047 146.73 38.7678 146.845 38.2884C147.133 37.1762 147.171 37.1378 147.727 37.1378C148.015 37.1378 148.187 37.2529 148.187 37.4447Z" fill="#0088AA"/>
<path d="M151.351 36.2175C150.949 36.5818 150.699 37.2722 149.971 39.9952C149.319 42.4497 149.127 43.4085 149.28 43.6386C149.434 43.8687 149.837 43.9646 151.025 44.003C152.464 44.0605 152.579 44.0221 152.943 43.5811C153.154 43.3126 153.461 42.5072 153.634 41.7977C153.806 41.0882 153.998 40.3403 154.055 40.1486C154.151 39.8609 154.017 39.8226 153.192 39.8226C152.272 39.8226 152.214 39.8418 152.061 40.4362C151.946 40.8964 151.965 41.0882 152.138 41.1649C152.31 41.2416 152.31 41.4142 152.138 41.9319C151.984 42.4497 151.812 42.6223 151.409 42.6606C150.757 42.7373 150.757 42.6798 151.332 40.4937C151.601 39.5349 151.908 38.4035 152.023 37.9433L152.234 37.1379H153.346H154.477L154.631 35.7956H153.25C152.08 35.7956 151.773 35.8723 151.351 36.2175Z" fill="#0088AA"/>
<path d="M156.28 36.3133C155.858 36.7352 155.59 37.5022 154.918 40.091C154.286 42.488 154.113 43.3893 154.266 43.6386C154.401 43.8687 154.803 43.9646 155.839 44.0029C157.162 44.0604 157.22 44.0413 157.392 43.5619C157.699 42.7756 157.641 42.6989 156.702 42.6989H155.82L155.935 42.1045C155.992 41.7785 156.05 41.4333 156.05 41.3374C156.05 41.2416 156.51 41.1649 157.085 41.1649C157.987 41.1649 158.121 41.1073 158.236 40.7238C158.447 39.8992 158.389 39.8225 157.469 39.8225H156.587L156.702 39.2089C157.105 37.1762 157.124 37.1571 158.217 37.0995C159.195 37.042 159.214 37.0228 159.271 36.4092L159.329 35.7956H158.063C156.932 35.7956 156.74 35.8531 156.28 36.3133Z" fill="#0088AA"/>
<path d="M162.359 36.2557C162.033 36.5626 161.745 37.3104 161.419 38.5569C160.882 40.7046 160.959 41.0306 162.071 41.1265C162.8 41.184 162.896 41.3758 162.57 42.2003C162.416 42.6222 162.263 42.6797 161.285 42.7373C160.192 42.7948 160.173 42.7948 160.115 43.4084L160.058 44.0412H161.458C163.298 44.0412 163.605 43.8111 164.104 42.1428C164.315 41.4333 164.487 40.7429 164.487 40.6279C164.487 40.2444 163.893 39.8225 163.318 39.8225C162.666 39.8225 162.627 39.5924 163.049 38.135L163.356 37.1378H164.276C165.235 37.1378 165.446 36.9653 165.446 36.1599C165.446 35.8339 165.293 35.7955 164.123 35.7955C162.992 35.7955 162.742 35.853 162.359 36.2557Z" fill="#0088AA"/>
<path d="M165.945 37.042C165.561 38.5569 165.561 39.5349 165.907 40.5512C166.194 41.3182 166.137 41.836 165.561 43.6002C165.427 44.0029 165.485 44.0412 166.194 44.0412C166.942 44.0412 166.98 44.0221 167.172 43.2167C167.556 41.7209 167.709 41.3758 168.515 40.3786C169.512 39.113 169.819 38.5185 170.26 37.0036L170.605 35.7763L169.032 35.8914L168.706 37.0611C168.361 38.3268 167.786 39.4581 167.402 39.5924C167.076 39.6883 167.096 38.2692 167.46 36.9461C167.613 36.3708 167.748 35.8722 167.748 35.8339C167.748 35.8147 167.422 35.7955 167 35.7955H166.252L165.945 37.042Z" fill="#0088AA"/>
<path d="M171.429 36.3133C171.046 36.716 170.777 37.3488 170.432 38.7295C169.972 40.5895 169.972 40.6279 170.336 40.8964C170.528 41.0498 170.931 41.1648 171.238 41.1648C171.659 41.1648 171.775 41.2607 171.775 41.5675C171.775 42.4304 171.449 42.6989 170.355 42.6989C169.454 42.6989 169.32 42.7564 169.205 43.1208C168.975 44.0029 169.013 44.0412 170.586 44.0412C172.427 44.0412 172.733 43.7919 173.232 41.8743C173.654 40.3211 173.52 39.9375 172.446 39.8608C171.659 39.7841 171.659 39.765 172.158 37.8857C172.35 37.1762 172.388 37.157 173.347 37.0995C174.306 37.042 174.363 37.0228 174.478 36.4092L174.594 35.7955H173.27C172.062 35.7955 171.89 35.853 171.429 36.3133Z" fill="#0088AA"/>
<path d="M175.054 36.39C174.939 36.7351 174.843 37.042 174.843 37.0611C174.843 37.0995 175.15 37.1378 175.514 37.1378C175.879 37.1378 176.185 37.1954 176.185 37.2721C176.185 37.3488 175.802 38.8445 175.322 40.6087C174.843 42.3729 174.459 43.8686 174.459 43.9262C174.459 43.9837 174.785 44.0412 175.188 44.0412H175.936L177.777 37.1378H178.487C179.081 37.1378 179.234 37.0611 179.33 36.6968C179.56 35.7955 179.56 35.7955 177.355 35.7955H175.265L175.054 36.39Z" fill="#0088AA"/>
<path d="M180.327 36.2174C179.944 36.5626 179.656 37.3296 178.966 39.9567C177.892 44.0221 177.892 44.0412 179.848 44.0412C181.171 44.0412 181.19 44.0412 181.459 43.4084L181.708 42.7948L180.769 42.7373L179.81 42.6797L179.944 42.0661C180.117 41.184 180.136 41.1648 181.171 41.1648C182.073 41.1648 182.13 41.1456 182.283 40.532L182.437 39.9184L181.516 39.8608L180.577 39.8033L180.711 39.1897C180.769 38.8445 180.941 38.2692 181.056 37.9049C181.267 37.2721 181.305 37.2337 182.283 37.1762C183.108 37.1187 183.281 37.0611 183.281 36.7543C183.281 36.5626 183.338 36.2749 183.396 36.1023C183.492 35.8339 183.319 35.7955 182.168 35.7955C181.037 35.7955 180.73 35.8722 180.327 36.2174Z" fill="#0088AA"/>
<path d="M184.335 36.064C184.297 36.1791 183.779 38.02 183.223 40.1677L182.188 44.0605L183.722 43.9454L185.524 37.2338H186.08C186.752 37.2338 186.771 37.0612 185.754 40.8005C185.352 42.3538 185.006 43.7153 185.006 43.8495C185.006 43.9838 185.275 44.0413 185.716 44.0029L186.445 43.9454L187.135 41.3566C187.519 39.9376 187.94 38.4035 188.056 37.9433C188.247 37.2913 188.362 37.1379 188.727 37.1379C188.957 37.1379 189.206 37.1954 189.264 37.2529C189.321 37.3105 189.034 38.6145 188.631 40.1677C187.48 44.4056 187.519 44.0413 188.382 44.0413H189.129L190.146 40.1869C190.951 37.1571 191.124 36.2941 190.932 36.064C190.683 35.7572 189.666 35.7189 188.918 35.9873C188.612 36.1024 188.324 36.1216 188.19 36.0065C187.883 35.7572 184.412 35.7956 184.335 36.064Z" fill="#0088AA"/>
<path d="M192.428 36.2174C192.14 36.505 191.833 37.3104 191.527 38.5377C190.99 40.7046 191.066 41.0306 192.179 41.1265C192.907 41.184 193.003 41.3758 192.677 42.2003C192.524 42.6222 192.37 42.6797 191.392 42.7373C190.299 42.7948 190.28 42.7948 190.223 43.4084L190.165 44.0412H191.565C193.617 44.0412 193.828 43.8111 194.499 40.9539C194.652 40.3211 194.192 39.8225 193.425 39.8225C192.773 39.8225 192.735 39.5924 193.157 38.135L193.463 37.1378H194.384C195.189 37.1378 195.324 37.0803 195.439 36.6968C195.669 35.8339 195.611 35.7955 194.211 35.7955C193.061 35.7955 192.792 35.853 192.428 36.2174Z" fill="#0088AA"/>
<path d="M64.328 39.9566C64.2704 40.0524 64.1746 40.3976 64.0979 40.7236L63.9636 41.3564H87.0715H110.179L110.563 39.8223H87.4934C74.7984 39.8223 64.3663 39.8799 64.328 39.9566Z" fill="#0088AA"/>
<path d="M196.723 40.4168C196.302 41.6058 196.11 41.5674 200.962 41.5099L205.41 41.4524L205.641 40.6278L205.89 39.8224H201.403H196.934L196.723 40.4168Z" fill="#0088AA"/>
</svg>
