<?xml version="1.0" encoding="utf-8"?>
<!-- Generator: Adobe Illustrator 24.3.0, SVG Export Plug-In . SVG Version: 6.00 Build 0)  -->
<svg version="1.1" id="Layer_1" xmlns="http://www.w3.org/2000/svg" xmlns:xlink="http://www.w3.org/1999/xlink" x="0px" y="0px"
	 viewBox="0 0 284.2 102.6" style="enable-background:new 0 0 284.2 102.6;" xml:space="preserve">
<style type="text/css">
	.st0{fill:#FCB31E;}
	.st1{fill:#FFFFFF;}
	.st2{fill:#00A651;}
	.st3{fill:url(#SVGID_1_);}
	.st4{fill:#ED2024;}
	.st5{fill:none;stroke:#FFFFFF;stroke-width:15;stroke-miterlimit:10;}
	.st6{fill:#3953A4;}
	.st7{fill:none;stroke:#000000;stroke-width:21;stroke-miterlimit:10;}
	.st8{fill:#D9E13C;}
	.st9{fill:#48B869;}
	.st10{fill:url(#SVGID_4_);}
	.st11{fill:url(#SVGID_5_);}
	.st12{fill:#414099;}
	.st13{fill:url(#SVGID_6_);}
	.st14{fill:#4A51A2;}
	.st15{fill:url(#SVGID_7_);}
	.st16{fill:url(#SVGID_8_);}
	.st17{fill:#46B971;}
	.st18{fill:url(#SVGID_9_);}
	.st19{fill:url(#SVGID_10_);}
	.st20{fill:url(#SVGID_11_);}
	.st21{fill:url(#SVGID_12_);}
	.st22{fill:url(#SVGID_13_);}
	.st23{fill:url(#SVGID_14_);}
	.st24{fill:url(#SVGID_15_);}
	.st25{fill:url(#SVGID_16_);}
	.st26{fill:url(#SVGID_17_);}
	.st27{fill:url(#SVGID_18_);}
	.st28{fill:url(#SVGID_19_);}
	.st29{fill:url(#SVGID_20_);}
	.st30{fill:url(#SVGID_21_);}
	.st31{fill:url(#SVGID_22_);}
	.st32{fill:url(#SVGID_23_);}
	.st33{fill:url(#SVGID_24_);}
	.st34{fill:url(#SVGID_25_);}
	.st35{fill:#5E56A5;}
	.st36{fill:#6560AA;}
	.st37{fill:#7270B4;}
	.st38{fill:#8280BD;}
	.st39{fill:url(#SVGID_26_);}
	.st40{fill:url(#SVGID_27_);}
	.st41{fill:url(#SVGID_28_);}
	.st42{fill:url(#SVGID_29_);}
	.st43{opacity:0.1;}
	.st44{fill:#3953A4;stroke:#FFFFFF;stroke-width:6;stroke-miterlimit:10;}
	.st45{fill:#3953A4;stroke:#FFFFFF;stroke-width:8;stroke-miterlimit:10;}
	.st46{fill:#00A651;stroke:#FFFFFF;stroke-width:8;stroke-miterlimit:10;}
	.st47{fill:#FCB31E;stroke:#FFFFFF;stroke-width:8;stroke-miterlimit:10;}
</style>
<g>
	<path class="st4" d="M56.9,82.9H35.5c-15.6,0-28.2-12.6-28.2-28.2V33.2C7.2,17.6,19.9,5,35.5,5h21.5c15.6,0,28.2,12.6,28.2,28.2
		v21.5C85.1,70.3,72.5,82.9,56.9,82.9z"/>
	<path class="st6" d="M121.5,97h-21.1C84.8,97,72,84.3,72,68.6V47.5c0-15.7,12.7-28.4,28.4-28.4h21.1c15.7,0,28.4,12.7,28.4,28.4
		v21.1C150,84.3,137.2,97,121.5,97z"/>
	<path class="st2" d="M185.7,82.9h-20.8c-15.8,0-28.6-12.8-28.6-28.6V33.6c0-15.8,12.8-28.6,28.6-28.6h20.8
		c15.8,0,28.6,12.8,28.6,28.6v20.8C214.3,70.1,201.5,82.9,185.7,82.9z"/>
	<path class="st0" d="M250.1,97h-19.9c-16,0-29-13-29-29V48.1c0-16,13-29,29-29l19.9,0c16,0,29,13,29,29V68
		C279.1,84,266.1,97,250.1,97z"/>
	<g>
		<g>
			<path class="st1" d="M172.7,29.1c6.2,0,11.3,5,11.5,11.2v0c0,0.1,0,0.2,0,0.3v14.3h9.7V40.6c0-0.1,0-0.2,0-0.3
				c-0.1-5-1.9-9.5-4.8-13.1c-3.9-4.7-9.8-7.7-16.3-7.7h0L172.7,29.1L172.7,29.1z"/>
			
				<rect x="162.2" y="19.4" transform="matrix(-1 -1.224647e-16 1.224647e-16 -1 335.0441 48.5459)" class="st1" width="10.7" height="9.7"/>
		</g>
		<g>
			<path class="st1" d="M178,48.8c3.4,0,6.2,2.8,6.2,6.2s-2.8,6.2-6.2,6.2h-9.6c-3.4,0-6.2-2.8-6.2-6.2s2.8-6.2,6.2-6.2H178
				 M178,39.1h-9.6c-8.8,0-15.9,7.1-15.9,15.9s7.1,15.9,15.9,15.9h9.6c8.8,0,15.9-7.1,15.9-15.9S186.8,39.1,178,39.1L178,39.1z"/>
		</g>
	</g>
	<g>
		<g>
			<path class="st1" d="M251.7,31.6v13.8c0,0.5,0,0.9-0.1,1.4C250.9,52.5,246,57,240.1,57c-5.9,0-10.8-4.4-11.4-10.2
				c0-0.1,0-0.2,0-0.3c0,0,0,0,0,0c0-0.3,0-0.7,0-1V31.6h-9.7v13.8c0,0.4,0,0.8,0,1.2v0c0,0.1,0,0.1,0,0.2c0,0.4,0.1,0.8,0.1,1.2v0
				c0,0,0,0,0,0c0.8,6.3,4.4,11.8,9.5,15.1c0,0,0.1,0.1,0.1,0.1c0,0,0,0,0,0c0,0,0,0,0,0c0,0,0.1,0.1,0.1,0.1
				c3.3,2.1,7.2,3.3,11.3,3.3c4.2,0,8.1-1.2,11.4-3.3c1.4-0.9,2.7-1.9,3.8-3.1c0.3-0.3,0.6-0.6,0.8-0.9c0.3-0.3,0.5-0.6,0.8-0.9
				c0.1-0.2,0.2-0.3,0.4-0.5c0.6-0.8,1.1-1.7,1.6-2.6c0,0,0,0,0,0c0.2-0.4,0.4-0.7,0.5-1.1c0.1-0.2,0.2-0.4,0.2-0.6
				c0.2-0.4,0.3-0.8,0.4-1.2c0.6-1.8,1-3.7,1.1-5.6v0c0-0.5,0-0.9,0-1.4V31.6H251.7z"/>
		</g>
		<g>
			<path class="st1" d="M240.2,73.4v9.7h0c6.6,0,12.4-3,16.3-7.7c3-3.6,4.8-8.1,4.8-13.1c0-0.1,0-0.2,0-0.3V31.6h-9.7v30.3
				c0,0.1,0,0.2,0,0.3v0C251.6,68.4,246.5,73.4,240.2,73.4L240.2,73.4z"/>
			
				<rect x="228.6" y="73.4" transform="matrix(-1 -1.423718e-11 1.423718e-11 -1 468.9716 156.4789)" class="st1" width="11.8" height="9.7"/>
		</g>
	</g>
	<g>
		<path class="st1" d="M115.8,73.4c-6.2,0-11.3-5-11.5-11.2v0c0-0.1,0-0.2,0-0.3V31.6h-9.7v30.3c0,0.1,0,0.2,0,0.3
			c0.1,5,1.9,9.5,4.8,13.1c3.9,4.7,9.8,7.7,16.3,7.7h0L115.8,73.4L115.8,73.4z"/>
		<rect x="115.6" y="73.4" class="st1" width="11.8" height="9.7"/>
	</g>
	<g>
		<rect x="46.3" y="19.4" class="st1" width="5.5" height="9.7"/>
		<g>
			<g>
				<g>
					<path class="st1" d="M46.3,29.1v-9.7h0c-6.6,0-12.4,3-16.3,7.7c-3,3.6-4.8,8.1-4.8,13.1c0,0.1,0,0.2,0,0.3v3h9.7v-3
						c0-0.1,0-0.2,0-0.3v0C34.9,34.1,40,29.1,46.3,29.1L46.3,29.1z"/>
				</g>
				<g>
					<path class="st1" d="M46.2,61.1c-6.2,0-11.3-5-11.5-11.2v0c0-0.1,0-0.2,0-0.3v-6.1h-9.7v6.1c0,0.1,0,0.2,0,0.3
						c0.1,5,1.9,9.5,4.8,13.1c3.9,4.7,9.8,7.7,16.3,7.7h0L46.2,61.1L46.2,61.1z"/>
				</g>
			</g>
			<rect x="46.3" y="61.1" class="st1" width="17.4" height="9.7"/>
		</g>
	</g>
</g>
</svg>
