<svg width="146" height="28" viewBox="0 0 146 28" fill="none" xmlns="http://www.w3.org/2000/svg">
<g clip-path="url(#clip0_70_228)">
<path d="M13.4159 9.15741C13.4962 9.32103 13.5665 9.48465 13.6268 9.64827C13.8025 10.1022 13.928 10.5666 13.9983 11.0311C14.159 12.0709 14.0736 13.1265 13.7674 14.1029C13.4962 14.9791 13.0494 15.7919 12.4418 16.4781C12.2259 16.7261 11.99 16.9583 11.7339 17.1695C11.4226 17.4281 11.0761 17.6603 10.7046 17.8609C10.6795 17.8715 10.6594 17.8873 10.6343 17.8978C10.4636 17.6339 10.3079 17.3595 10.1623 17.0639C9.9364 16.5889 9.76066 16.1033 9.63514 15.6124C10.2678 15.2694 10.7699 14.768 11.1163 14.1715C11.4527 13.6015 11.6485 12.947 11.6787 12.2715C11.6937 11.9548 11.6736 11.6381 11.6134 11.3214C11.5481 10.9731 11.4377 10.6247 11.277 10.2922C11.1213 9.97023 10.9305 9.67993 10.7096 9.42659C10.5791 9.27353 10.4385 9.1363 10.2929 9.00962C10.1473 8.88295 9.98661 8.76683 9.82594 8.66655C9.45439 8.43432 9.04267 8.27598 8.62092 8.19153C8.34979 8.13875 8.07364 8.11236 7.79748 8.12291C7.55648 8.12819 7.31046 8.16514 7.06945 8.2232C6.88368 8.26542 6.70292 8.32876 6.52217 8.40265C6.41673 8.44487 6.31129 8.49765 6.21087 8.55043C5.78912 8.77739 5.42259 9.07296 5.12636 9.42131C4.83514 9.7591 4.60418 10.1497 4.43849 10.5666C4.21757 11.1261 4.12217 11.7384 4.15732 12.3506C4.15732 12.3559 4.15732 12.3559 4.15732 12.3612C4.16736 12.4984 4.18242 12.6409 4.20753 12.7781C4.25774 13.0684 4.33807 13.3534 4.44853 13.6332L2.17405 11.6381L1.72719 11.2422C1.64184 10.593 1.54644 9.8805 1.45104 9.14685C1.29037 7.91707 1.11966 6.61339 0.964012 5.42056C0.652715 2.97682 0.391628 0.981725 0.391628 0.981725L0.341418 0.554204C0.331376 0.448643 0.326356 0.34836 0.331376 0.248077L1.05439 0.881442L2.98242 2.57569L3.11297 3.61019L3.46443 6.39699L3.6 7.47899C3.88619 7.18342 4.20251 6.90896 4.55397 6.67145C4.69456 6.57117 4.84016 6.48144 4.99079 6.39699C5.02594 6.37588 5.0661 6.35477 5.10627 6.33366C5.11631 6.32838 5.12636 6.3231 5.1364 6.31782C5.77908 5.97475 6.4569 5.76363 7.13472 5.6739C7.23012 5.65807 7.3205 5.65279 7.41589 5.64223C7.55146 5.63168 7.69204 5.62112 7.82761 5.62112C8.70627 5.60529 9.56987 5.7953 10.3682 6.1542C11.0711 6.47616 11.7238 6.93008 12.2812 7.51594C12.3264 7.56344 12.3715 7.61622 12.4167 7.66372C12.8084 8.1018 13.1448 8.59794 13.4159 9.15741Z" fill="white"/>
<path d="M20.3297 10.3661C20.7816 10.7672 21.1833 11.2 21.5448 11.6592C23.2318 13.8232 23.9347 16.6047 23.5833 19.286C23.4728 20.1305 23.2619 20.9697 22.9406 21.7666C22.5841 22.6639 22.092 23.5242 21.4594 24.3107C19.8728 26.2899 17.7038 27.4511 15.4343 27.7467L14.3397 25.3135C16.313 25.2871 18.2661 24.4004 19.6368 22.6903C20.0033 22.2364 20.3046 21.7455 20.5456 21.2388C20.9121 20.4735 21.1381 19.6554 21.2335 18.8321C21.5096 16.4411 20.6711 13.9499 18.7883 12.2873C18.2912 11.8439 17.7489 11.4903 17.1816 11.2158C17.1012 11.1789 17.0209 11.1419 16.9356 11.105C16.2075 10.7883 15.4393 10.6089 14.6661 10.5666C14.4803 9.68521 14.1389 8.83545 13.6469 8.06485C14.5908 8.00152 15.5498 8.08597 16.4787 8.3182C16.7247 8.38154 16.9657 8.45543 17.2067 8.5346C18.3213 8.91989 19.3807 9.52687 20.3297 10.3661Z" fill="white"/>
<path d="M15.7657 17.4756C15.0326 17.4228 14.2996 17.2434 13.6017 16.9478C13.4962 16.9056 13.3958 16.8528 13.2904 16.8C13.6167 16.3725 13.8929 15.9133 14.1088 15.4435C14.405 14.826 14.6058 14.1715 14.7213 13.5065C14.887 12.5301 14.8669 11.5272 14.6661 10.5666C14.4853 9.7116 14.164 8.88822 13.692 8.13874C13.677 8.11235 13.6619 8.09124 13.6519 8.07013C13.6167 8.01207 13.5816 7.95929 13.5464 7.90651C13.21 7.40509 12.8083 6.9459 12.3414 6.53422C11.8644 6.1067 11.3422 5.76362 10.8 5.49444C10.7046 5.44694 10.6042 5.39944 10.5037 5.35721C10.4987 5.35194 10.4937 5.35194 10.4887 5.35194C9.79077 5.05109 9.06274 4.87164 8.32466 4.81885C7.27529 4.73968 6.2209 4.90858 5.2368 5.30971C4.92048 5.44166 4.6142 5.59473 4.31295 5.77418L4.04182 3.61018L3.98157 3.14044C5.91462 2.23262 8.10374 2.04261 10.1623 2.59152C10.3632 2.64958 10.569 2.71292 10.7648 2.77625C10.8803 2.81848 11.0008 2.8607 11.1163 2.9082C11.6736 3.1246 12.2159 3.39906 12.7381 3.73686C13.1347 3.99548 13.5163 4.28049 13.8828 4.60773C14.3297 5.00886 14.7364 5.44166 15.0979 5.90085C15.3841 6.26504 15.6401 6.64506 15.8661 7.04091C16.1021 7.4526 16.3079 7.87484 16.4837 8.31292C16.8552 9.23657 17.0862 10.2183 17.1816 11.2106C17.3774 13.364 16.9205 15.5702 15.7657 17.4756Z" fill="white"/>
<path d="M22.8201 18.9799C22.7096 19.8243 22.4987 20.6635 22.1774 21.4605C21.3489 21.3972 20.5456 21.2125 19.7824 20.9327C19.1247 20.6899 18.497 20.3733 17.9146 19.988C18.3012 19.2121 18.5824 18.394 18.7581 17.5601C19.2803 17.9612 19.8577 18.2884 20.4753 18.5259C21.2033 18.8162 21.9966 18.9746 22.8201 18.9799Z" fill="white"/>
</g>
<path d="M34.76 20.18C34.232 20.18 33.704 20.138 33.176 20.054C32.648 19.982 32.15 19.868 31.682 19.712C31.214 19.544 30.794 19.34 30.422 19.1C30.206 18.956 30.056 18.782 29.972 18.578C29.888 18.374 29.858 18.176 29.882 17.984C29.918 17.78 29.996 17.606 30.116 17.462C30.248 17.306 30.41 17.21 30.602 17.174C30.794 17.138 31.004 17.192 31.232 17.336C31.76 17.648 32.318 17.876 32.906 18.02C33.494 18.164 34.112 18.236 34.76 18.236C35.708 18.236 36.398 18.08 36.83 17.768C37.262 17.444 37.478 17.03 37.478 16.526C37.478 16.106 37.322 15.776 37.01 15.536C36.71 15.296 36.188 15.098 35.444 14.942L33.464 14.528C32.324 14.288 31.472 13.886 30.908 13.322C30.356 12.746 30.08 11.99 30.08 11.054C30.08 10.466 30.2 9.932 30.44 9.452C30.68 8.972 31.016 8.558 31.448 8.21C31.892 7.862 32.414 7.598 33.014 7.418C33.626 7.226 34.298 7.13 35.03 7.13C35.75 7.13 36.434 7.22 37.082 7.4C37.73 7.58 38.312 7.844 38.828 8.192C39.02 8.324 39.146 8.486 39.206 8.678C39.278 8.87 39.296 9.062 39.26 9.254C39.224 9.434 39.14 9.59 39.008 9.722C38.876 9.854 38.708 9.932 38.504 9.956C38.312 9.98 38.09 9.92 37.838 9.776C37.394 9.524 36.944 9.344 36.488 9.236C36.032 9.128 35.54 9.074 35.012 9.074C34.46 9.074 33.986 9.152 33.59 9.308C33.194 9.464 32.888 9.686 32.672 9.974C32.468 10.25 32.366 10.58 32.366 10.964C32.366 11.396 32.51 11.744 32.798 12.008C33.086 12.26 33.578 12.458 34.274 12.602L36.236 13.016C37.424 13.268 38.306 13.664 38.882 14.204C39.47 14.744 39.764 15.464 39.764 16.364C39.764 16.94 39.644 17.462 39.404 17.93C39.176 18.398 38.84 18.8 38.396 19.136C37.964 19.472 37.442 19.73 36.83 19.91C36.218 20.09 35.528 20.18 34.76 20.18ZM45.5035 20.18C44.8555 20.18 44.1835 20.096 43.4875 19.928C42.7915 19.76 42.1855 19.508 41.6695 19.172C41.4295 19.016 41.2675 18.836 41.1835 18.632C41.0995 18.428 41.0755 18.236 41.1115 18.056C41.1595 17.864 41.2495 17.702 41.3815 17.57C41.5255 17.438 41.6995 17.36 41.9035 17.336C42.1195 17.312 42.3535 17.366 42.6055 17.498C43.0975 17.762 43.5715 17.954 44.0275 18.074C44.4835 18.182 44.9515 18.236 45.4315 18.236C45.9595 18.236 46.4035 18.164 46.7635 18.02C47.1235 17.876 47.3935 17.66 47.5735 17.372C47.7655 17.084 47.8615 16.736 47.8615 16.328C47.8615 15.728 47.6575 15.284 47.2495 14.996C46.8535 14.696 46.2715 14.546 45.5035 14.546H44.3515C44.0155 14.546 43.7575 14.462 43.5775 14.294C43.4095 14.126 43.3255 13.892 43.3255 13.592C43.3255 13.292 43.4095 13.058 43.5775 12.89C43.7575 12.722 44.0155 12.638 44.3515 12.638H45.2875C45.7435 12.638 46.1335 12.566 46.4575 12.422C46.7815 12.266 47.0335 12.05 47.2135 11.774C47.3935 11.498 47.4835 11.162 47.4835 10.766C47.4835 10.214 47.2975 9.794 46.9255 9.506C46.5655 9.218 46.0375 9.074 45.3415 9.074C44.8975 9.074 44.4775 9.128 44.0815 9.236C43.6975 9.332 43.2715 9.518 42.8035 9.794C42.5875 9.926 42.3775 9.98 42.1735 9.956C41.9815 9.932 41.8195 9.854 41.6875 9.722C41.5555 9.59 41.4655 9.434 41.4175 9.254C41.3695 9.062 41.3815 8.87 41.4535 8.678C41.5255 8.474 41.6755 8.3 41.9035 8.156C42.4195 7.82 42.9895 7.568 43.6135 7.4C44.2375 7.22 44.8795 7.13 45.5395 7.13C46.4155 7.13 47.1655 7.268 47.7895 7.544C48.4135 7.808 48.8875 8.192 49.2115 8.696C49.5475 9.188 49.7155 9.788 49.7155 10.496C49.7155 11 49.6195 11.462 49.4275 11.882C49.2355 12.29 48.9655 12.638 48.6175 12.926C48.2695 13.214 47.8495 13.418 47.3575 13.538V13.322C48.2215 13.466 48.8935 13.826 49.3735 14.402C49.8535 14.966 50.0935 15.674 50.0935 16.526C50.0935 17.27 49.9075 17.918 49.5355 18.47C49.1635 19.022 48.6355 19.448 47.9515 19.748C47.2675 20.036 46.4515 20.18 45.5035 20.18ZM52.6604 20.144C52.3724 20.144 52.1384 20.078 51.9584 19.946C51.7904 19.814 51.6884 19.64 51.6524 19.424C51.6164 19.196 51.6584 18.944 51.7784 18.668L56.5304 8.138C56.6864 7.79 56.8724 7.544 57.0884 7.4C57.3164 7.244 57.5744 7.166 57.8624 7.166C58.1384 7.166 58.3844 7.244 58.6004 7.4C58.8284 7.544 59.0204 7.79 59.1764 8.138L63.9464 18.668C64.0784 18.944 64.1264 19.196 64.0904 19.424C64.0544 19.652 63.9524 19.832 63.7844 19.964C63.6164 20.084 63.3944 20.144 63.1184 20.144C62.7824 20.144 62.5184 20.066 62.3264 19.91C62.1464 19.742 61.9844 19.49 61.8404 19.154L60.6704 16.436L61.6424 17.066H54.0464L55.0184 16.436L53.8664 19.154C53.7104 19.502 53.5484 19.754 53.3804 19.91C53.2124 20.066 52.9724 20.144 52.6604 20.144ZM57.8264 9.812L55.3064 15.806L54.8384 15.23H60.8504L60.4004 15.806L57.8624 9.812H57.8264ZM76.9177 20.18C75.5137 20.18 74.3257 19.916 73.3537 19.388C72.3937 18.86 71.6617 18.11 71.1577 17.138C70.6537 16.166 70.4017 15.014 70.4017 13.682C70.4017 12.674 70.5457 11.768 70.8337 10.964C71.1337 10.16 71.5597 9.476 72.1117 8.912C72.6757 8.336 73.3597 7.898 74.1637 7.598C74.9677 7.286 75.8797 7.13 76.8997 7.13C77.5717 7.13 78.2437 7.214 78.9157 7.382C79.5997 7.538 80.2417 7.808 80.8417 8.192C81.0457 8.324 81.1777 8.486 81.2377 8.678C81.3097 8.87 81.3217 9.068 81.2737 9.272C81.2257 9.464 81.1357 9.632 81.0037 9.776C80.8717 9.92 80.7037 10.01 80.4997 10.046C80.3077 10.082 80.0917 10.034 79.8517 9.902C79.3957 9.638 78.9337 9.446 78.4657 9.326C77.9977 9.206 77.4757 9.146 76.8997 9.146C76.0117 9.146 75.2617 9.326 74.6497 9.686C74.0377 10.034 73.5757 10.544 73.2637 11.216C72.9637 11.888 72.8137 12.71 72.8137 13.682C72.8137 15.158 73.1677 16.28 73.8757 17.048C74.5837 17.816 75.6337 18.2 77.0257 18.2C77.5057 18.2 77.9917 18.152 78.4837 18.056C78.9757 17.96 79.4557 17.828 79.9237 17.66L79.4737 18.686V14.852H77.4937C77.1937 14.852 76.9597 14.774 76.7917 14.618C76.6357 14.462 76.5577 14.252 76.5577 13.988C76.5577 13.712 76.6357 13.502 76.7917 13.358C76.9597 13.214 77.1937 13.142 77.4937 13.142H80.4637C80.7637 13.142 80.9917 13.226 81.1477 13.394C81.3157 13.55 81.3997 13.778 81.3997 14.078V18.452C81.3997 18.716 81.3457 18.938 81.2377 19.118C81.1417 19.298 80.9797 19.43 80.7517 19.514C80.2237 19.706 79.6177 19.868 78.9337 20C78.2497 20.12 77.5777 20.18 76.9177 20.18ZM85.2216 20.144C84.8496 20.144 84.5616 20.042 84.3576 19.838C84.1656 19.622 84.0696 19.328 84.0696 18.956V8.48C84.0696 8.096 84.1716 7.808 84.3756 7.616C84.5796 7.412 84.8676 7.31 85.2396 7.31H89.5776C90.9696 7.31 92.0436 7.646 92.7996 8.318C93.5556 8.978 93.9336 9.908 93.9336 11.108C93.9336 11.888 93.7596 12.56 93.4116 13.124C93.0756 13.688 92.5836 14.12 91.9356 14.42C91.2876 14.72 90.5016 14.87 89.5776 14.87L89.7396 14.6H90.3336C90.8256 14.6 91.2516 14.72 91.6116 14.96C91.9836 15.2 92.3076 15.578 92.5836 16.094L93.9336 18.596C94.0776 18.848 94.1436 19.094 94.1316 19.334C94.1196 19.574 94.0296 19.772 93.8616 19.928C93.6936 20.072 93.4476 20.144 93.1236 20.144C92.7996 20.144 92.5356 20.078 92.3316 19.946C92.1276 19.802 91.9476 19.586 91.7916 19.298L89.9736 15.95C89.7576 15.542 89.4996 15.272 89.1996 15.14C88.9116 14.996 88.5396 14.924 88.0836 14.924H86.3736V18.956C86.3736 19.328 86.2776 19.622 86.0856 19.838C85.8936 20.042 85.6056 20.144 85.2216 20.144ZM86.3736 13.214H89.1816C90.0096 13.214 90.6336 13.046 91.0536 12.71C91.4856 12.362 91.7016 11.846 91.7016 11.162C91.7016 10.49 91.4856 9.986 91.0536 9.65C90.6336 9.302 90.0096 9.128 89.1816 9.128H86.3736V13.214ZM102.01 20.18C100.786 20.18 99.7115 19.91 98.7875 19.37C97.8755 18.83 97.1675 18.074 96.6635 17.102C96.1595 16.118 95.9075 14.966 95.9075 13.646C95.9075 12.65 96.0515 11.756 96.3395 10.964C96.6275 10.16 97.0355 9.476 97.5635 8.912C98.1035 8.336 98.7455 7.898 99.4895 7.598C100.246 7.286 101.086 7.13 102.01 7.13C103.246 7.13 104.32 7.4 105.232 7.94C106.144 8.468 106.852 9.218 107.356 10.19C107.86 11.162 108.112 12.308 108.112 13.628C108.112 14.624 107.968 15.524 107.68 16.328C107.392 17.132 106.978 17.822 106.438 18.398C105.91 18.974 105.268 19.418 104.512 19.73C103.768 20.03 102.934 20.18 102.01 20.18ZM102.01 18.2C102.79 18.2 103.45 18.02 103.99 17.66C104.542 17.3 104.962 16.778 105.25 16.094C105.55 15.41 105.7 14.594 105.7 13.646C105.7 12.206 105.376 11.09 104.728 10.298C104.092 9.506 103.186 9.11 102.01 9.11C101.242 9.11 100.582 9.29 100.03 9.65C99.4775 9.998 99.0515 10.514 98.7515 11.198C98.4635 11.87 98.3195 12.686 98.3195 13.646C98.3195 15.074 98.6435 16.19 99.2915 16.994C99.9395 17.798 100.846 18.2 102.01 18.2ZM115.728 20.18C114.852 20.18 114.078 20.066 113.406 19.838C112.746 19.61 112.188 19.274 111.732 18.83C111.276 18.374 110.934 17.81 110.706 17.138C110.478 16.466 110.364 15.686 110.364 14.798V8.336C110.364 7.94 110.46 7.646 110.652 7.454C110.856 7.262 111.144 7.166 111.516 7.166C111.888 7.166 112.17 7.262 112.362 7.454C112.566 7.646 112.668 7.94 112.668 8.336V14.78C112.668 15.92 112.926 16.778 113.442 17.354C113.97 17.918 114.732 18.2 115.728 18.2C116.724 18.2 117.48 17.918 117.996 17.354C118.512 16.778 118.77 15.92 118.77 14.78V8.336C118.77 7.94 118.866 7.646 119.058 7.454C119.262 7.262 119.55 7.166 119.922 7.166C120.282 7.166 120.558 7.262 120.75 7.454C120.954 7.646 121.056 7.94 121.056 8.336V14.798C121.056 15.974 120.852 16.964 120.444 17.768C120.048 18.572 119.454 19.178 118.662 19.586C117.87 19.982 116.892 20.18 115.728 20.18ZM124.895 20.144C124.523 20.144 124.235 20.042 124.031 19.838C123.839 19.622 123.743 19.328 123.743 18.956V8.48C123.743 8.096 123.845 7.808 124.049 7.616C124.253 7.412 124.541 7.31 124.913 7.31H129.251C130.643 7.31 131.717 7.658 132.473 8.354C133.229 9.05 133.607 10.022 133.607 11.27C133.607 12.518 133.229 13.496 132.473 14.204C131.717 14.9 130.643 15.248 129.251 15.248H126.047V18.956C126.047 19.328 125.951 19.622 125.759 19.838C125.567 20.042 125.279 20.144 124.895 20.144ZM126.047 13.43H128.891C129.707 13.43 130.325 13.25 130.745 12.89C131.165 12.518 131.375 11.978 131.375 11.27C131.375 10.562 131.165 10.028 130.745 9.668C130.325 9.308 129.707 9.128 128.891 9.128H126.047V13.43ZM139.86 20.18C139.332 20.18 138.804 20.138 138.276 20.054C137.748 19.982 137.25 19.868 136.782 19.712C136.314 19.544 135.894 19.34 135.522 19.1C135.306 18.956 135.156 18.782 135.072 18.578C134.988 18.374 134.958 18.176 134.982 17.984C135.018 17.78 135.096 17.606 135.216 17.462C135.348 17.306 135.51 17.21 135.702 17.174C135.894 17.138 136.104 17.192 136.332 17.336C136.86 17.648 137.418 17.876 138.006 18.02C138.594 18.164 139.212 18.236 139.86 18.236C140.808 18.236 141.498 18.08 141.93 17.768C142.362 17.444 142.578 17.03 142.578 16.526C142.578 16.106 142.422 15.776 142.11 15.536C141.81 15.296 141.288 15.098 140.544 14.942L138.564 14.528C137.424 14.288 136.572 13.886 136.008 13.322C135.456 12.746 135.18 11.99 135.18 11.054C135.18 10.466 135.3 9.932 135.54 9.452C135.78 8.972 136.116 8.558 136.548 8.21C136.992 7.862 137.514 7.598 138.114 7.418C138.726 7.226 139.398 7.13 140.13 7.13C140.85 7.13 141.534 7.22 142.182 7.4C142.83 7.58 143.412 7.844 143.928 8.192C144.12 8.324 144.246 8.486 144.306 8.678C144.378 8.87 144.396 9.062 144.36 9.254C144.324 9.434 144.24 9.59 144.108 9.722C143.976 9.854 143.808 9.932 143.604 9.956C143.412 9.98 143.19 9.92 142.938 9.776C142.494 9.524 142.044 9.344 141.588 9.236C141.132 9.128 140.64 9.074 140.112 9.074C139.56 9.074 139.086 9.152 138.69 9.308C138.294 9.464 137.988 9.686 137.772 9.974C137.568 10.25 137.466 10.58 137.466 10.964C137.466 11.396 137.61 11.744 137.898 12.008C138.186 12.26 138.678 12.458 139.374 12.602L141.336 13.016C142.524 13.268 143.406 13.664 143.982 14.204C144.57 14.744 144.864 15.464 144.864 16.364C144.864 16.94 144.744 17.462 144.504 17.93C144.276 18.398 143.94 18.8 143.496 19.136C143.064 19.472 142.542 19.73 141.93 19.91C141.318 20.09 140.628 20.18 139.86 20.18Z" fill="white"/>
<defs>
<clipPath id="clip0_70_228">
<rect width="24" height="28" fill="white"/>
</clipPath>
</defs>
</svg>
