<?xml version="1.0" encoding="utf-8"?>
<!-- Generator: Adobe Illustrator 24.3.0, SVG Export Plug-In . SVG Version: 6.00 Build 0)  -->
<svg version="1.1" id="Layer_1" xmlns="http://www.w3.org/2000/svg" xmlns:xlink="http://www.w3.org/1999/xlink" x="0px" y="0px"
	 viewBox="0 0 478 530.5" style="enable-background:new 0 0 478 530.5;" xml:space="preserve">
<style type="text/css">
	.st0{fill:#185AA6;}
	.st1{fill:#E51F23;}
	.st2{fill:#EE731B;}
</style>
<g>
	<path class="st0" d="M267.2,173.5c1.6,3.1,3,6.2,4.2,9.3c3.5,8.6,6,17.4,7.4,26.2c3.2,19.7,1.5,39.7-4.6,58.2
		c-5.4,16.6-14.3,32-26.4,45c-4.3,4.7-9,9.1-14.1,13.1c-6.2,4.9-13.1,9.3-20.5,13.1c-0.5,0.2-0.9,0.5-1.4,0.7
		c-3.4-5-6.5-10.2-9.4-15.8c-4.5-9-8-18.2-10.5-27.5c12.6-6.5,22.6-16,29.5-27.3c6.7-10.8,10.6-23.2,11.2-36c0.3-6-0.1-12-1.3-18
		c-1.3-6.6-3.5-13.2-6.7-19.5c-3.1-6.1-6.9-11.6-11.3-16.4c-2.6-2.9-5.4-5.5-8.3-7.9c-2.9-2.4-6.1-4.6-9.3-6.5
		c-7.4-4.4-15.6-7.4-24-9c-5.4-1-10.9-1.5-16.4-1.3c-4.8,0.1-9.7,0.8-14.5,1.9c-3.7,0.8-7.3,2-10.9,3.4c-2.1,0.8-4.2,1.8-6.2,2.8
		c-8.4,4.3-15.7,9.9-21.6,16.5c-5.8,6.4-10.4,13.8-13.7,21.7c-4.4,10.6-6.3,22.2-5.6,33.8c0,0.1,0,0.1,0,0.2c0.2,2.6,0.5,5.3,1,7.9
		c1,5.5,2.6,10.9,4.8,16.2l-45.3-37.8l-8.9-7.5c-1.7-12.3-3.6-25.8-5.5-39.7c-3.2-23.3-6.6-48-9.7-70.6C13,56.4,7.8,18.6,7.8,18.6
		l-1-8.1c-0.2-2-0.3-3.9-0.2-5.8l14.4,12l38.4,32.1L62,68.4l7,52.8l2.7,20.5c5.7-5.6,12-10.8,19-15.3c2.8-1.9,5.7-3.6,8.7-5.2
		c0.7-0.4,1.5-0.8,2.3-1.2c0.2-0.1,0.4-0.2,0.6-0.3c12.8-6.5,26.3-10.5,39.8-12.2c1.9-0.3,3.7-0.4,5.6-0.6c2.7-0.2,5.5-0.4,8.2-0.4
		c17.5-0.3,34.7,3.3,50.6,10.1c14,6.1,27,14.7,38.1,25.8c0.9,0.9,1.8,1.9,2.7,2.8C255.1,153.5,261.8,162.9,267.2,173.5z"/>
	<path class="st1" d="M404.9,196.4c9,7.6,17,15.8,24.2,24.5c33.6,41,47.6,93.7,40.6,144.5c-2.2,16-6.4,31.9-12.8,47
		c-7.1,17-16.9,33.3-29.5,48.2c-31.6,37.5-74.8,59.5-120,65.1l-21.8-46.1c39.3-0.5,78.2-17.3,105.5-49.7
		c7.3-8.6,13.3-17.9,18.1-27.5c7.3-14.5,11.8-30,13.7-45.6c5.5-45.3-11.2-92.5-48.7-124c-9.9-8.4-20.7-15.1-32-20.3
		c-1.6-0.7-3.2-1.4-4.9-2.1c-14.5-6-29.8-9.4-45.2-10.2c-3.7-16.7-10.5-32.8-20.3-47.4c18.8-1.2,37.9,0.4,56.4,4.8
		c4.9,1.2,9.7,2.6,14.5,4.1C364.9,169,386,180.5,404.9,196.4z"/>
	<path class="st2" d="M314,331.1c-14.6-1-29.2-4.4-43.1-10c-2.1-0.8-4.1-1.8-6.2-2.8c6.5-8.1,12-16.8,16.3-25.7
		c5.9-11.7,9.9-24.1,12.2-36.7c3.3-18.5,2.9-37.5-1.1-55.7c-3.6-16.2-10-31.8-19.4-46c-0.3-0.5-0.6-0.9-0.8-1.3
		c-0.7-1.1-1.4-2.1-2.1-3.1c-6.7-9.5-14.7-18.2-24-26c-9.5-8.1-19.9-14.6-30.7-19.7c-1.9-0.9-3.9-1.8-5.9-2.6
		c-0.1-0.1-0.2-0.1-0.3-0.1c-13.9-5.7-28.4-9.1-43.1-10.1c-20.9-1.5-41.9,1.7-61.5,9.3c-6.3,2.5-12.4,5.4-18.4,8.8l-5.4-41l-1.2-8.9
		c38.5-17.2,82.1-20.8,123.1-10.4c4,1.1,8.1,2.3,12,3.5c2.3,0.8,4.7,1.6,7,2.5c11.1,4.1,21.9,9.3,32.3,15.7
		c7.9,4.9,15.5,10.3,22.8,16.5c8.9,7.6,17,15.8,24.2,24.5c5.7,6.9,10.8,14.1,15.3,21.6c4.7,7.8,8.8,15.8,12.3,24.1
		c7.4,17.5,12,36.1,13.9,54.9C346.1,253.2,337,295,314,331.1z"/>
	<path class="st1" d="M454.5,359.6c-2.2,16-6.4,31.9-12.8,47c-16.5-1.2-32.5-4.7-47.7-10c-13.1-4.6-25.6-10.6-37.2-17.9
		c7.7-14.7,13.3-30.2,16.8-46c10.4,7.6,21.9,13.8,34.2,18.3C422.3,356.5,438.1,359.5,454.5,359.6z"/>
</g>
</svg>
