<svg width="31" height="31" viewBox="0 0 31 31" fill="none" xmlns="http://www.w3.org/2000/svg">
<rect x="0.170898" y="-0.00201416" width="30.0143" height="30.0143" rx="5" fill="#008BE8"/>
<path d="M18.0651 9.02127C18.199 9.15526 18.2741 9.3369 18.2741 9.52627C18.2741 9.71565 18.199 9.89728 18.0651 10.0313L15.683 12.4134C15.549 12.5472 15.3674 12.6224 15.178 12.6224C14.9887 12.6224 14.807 12.5472 14.673 12.4134L12.291 10.0313C12.1647 9.89581 12.096 9.71663 12.0993 9.53149C12.1025 9.34636 12.1775 9.16972 12.3085 9.03878C12.4394 8.90785 12.616 8.83285 12.8012 8.82959C12.9863 8.82632 13.1655 8.89504 13.301 9.02127L14.4634 10.1837V7.14419C14.4634 6.95466 14.5387 6.77289 14.6727 6.63887C14.8067 6.50486 14.9885 6.42957 15.178 6.42957C15.3676 6.42957 15.5493 6.50486 15.6834 6.63887C15.8174 6.77289 15.8927 6.95466 15.8927 7.14419V10.1837L17.0551 9.02127C17.1891 8.88745 17.3707 8.81228 17.5601 8.81228C17.7495 8.81228 17.9311 8.88745 18.0651 9.02127ZM9.19425 12.118C9.32824 11.9842 9.50987 11.909 9.69925 11.909C9.88862 11.909 10.0703 11.9842 10.2042 12.118L12.5863 14.5001C12.7202 14.6341 12.7953 14.8157 12.7953 15.0051C12.7953 15.1944 12.7202 15.3761 12.5863 15.5101L10.2042 17.8922C10.0688 18.0184 9.8896 18.0871 9.70447 18.0838C9.51933 18.0806 9.34269 18.0056 9.21176 17.8746C9.08083 17.7437 9.00583 17.5671 9.00256 17.3819C8.99929 17.1968 9.06801 17.0176 9.19425 16.8821L10.3567 15.7197H7.31716C7.12763 15.7197 6.94587 15.6444 6.81185 15.5104C6.67783 15.3764 6.60254 15.1946 6.60254 15.0051C6.60254 14.8155 6.67783 14.6338 6.81185 14.4998C6.94587 14.3657 7.12763 14.2904 7.31716 14.2904H10.3567L9.19425 13.128C9.06042 12.994 8.98525 12.8124 8.98525 12.623C8.98525 12.4336 9.06042 12.252 9.19425 12.118ZM20.1518 12.118C20.2173 12.0478 20.2961 11.9915 20.3838 11.9524C20.4715 11.9133 20.5661 11.8923 20.6621 11.8906C20.758 11.889 20.8533 11.9066 20.9423 11.9425C21.0313 11.9785 21.1121 12.032 21.18 12.0998C21.2478 12.1677 21.3013 12.2485 21.3373 12.3375C21.3732 12.4265 21.3909 12.5218 21.3892 12.6178C21.3875 12.7137 21.3665 12.8083 21.3274 12.896C21.2884 12.9837 21.232 13.0626 21.1618 13.128L19.9994 14.2904H23.0389C23.2284 14.2904 23.4102 14.3657 23.5442 14.4998C23.6783 14.6338 23.7535 14.8155 23.7535 15.0051C23.7535 15.1946 23.6783 15.3764 23.5442 15.5104C23.4102 15.6444 23.2284 15.7197 23.0389 15.7197H19.9994L21.1618 16.8821C21.232 16.9476 21.2884 17.0265 21.3274 17.1141C21.3665 17.2018 21.3875 17.2964 21.3892 17.3924C21.3909 17.4883 21.3732 17.5836 21.3373 17.6726C21.3013 17.7616 21.2478 17.8424 21.18 17.9103C21.1121 17.9782 21.0313 18.0316 20.9423 18.0676C20.8533 18.1035 20.758 18.1212 20.6621 18.1195C20.5661 18.1178 20.4715 18.0968 20.3838 18.0577C20.2961 18.0187 20.2173 17.9624 20.1518 17.8922L17.7697 15.5101C17.6359 15.3761 17.5608 15.1944 17.5608 15.0051C17.5608 14.8157 17.6359 14.6341 17.7697 14.5001L20.1518 12.118ZM18.0651 20.9889C18.199 20.8549 18.2741 20.6732 18.2741 20.4839C18.2741 20.2945 18.199 20.1128 18.0651 19.9789L15.683 17.5968C15.549 17.4629 15.3674 17.3878 15.178 17.3878C14.9887 17.3878 14.807 17.4629 14.673 17.5968L12.291 19.9789C12.2207 20.0443 12.1644 20.1232 12.1254 20.2108C12.0863 20.2985 12.0653 20.3931 12.0636 20.4891C12.0619 20.585 12.0796 20.6803 12.1155 20.7693C12.1515 20.8583 12.205 20.9391 12.2728 21.007C12.3407 21.0749 12.4215 21.1284 12.5105 21.1643C12.5995 21.2002 12.6948 21.2179 12.7907 21.2162C12.8867 21.2145 12.9813 21.1935 13.069 21.1544C13.1566 21.1154 13.2355 21.0591 13.301 20.9889L14.4634 19.8264V22.8659C14.4634 23.0555 14.5387 23.2372 14.6727 23.3713C14.8067 23.5053 14.9885 23.5806 15.178 23.5806C15.3676 23.5806 15.5493 23.5053 15.6834 23.3713C15.8174 23.2372 15.8927 23.0555 15.8927 22.8659V19.8264L17.0551 20.9889C17.1891 21.1227 17.3707 21.1979 17.5601 21.1979C17.7495 21.1979 17.9311 21.1227 18.0651 20.9889Z" fill="white"/>
</svg>
