<svg width="31" height="31" viewBox="0 0 31 31" fill="none" xmlns="http://www.w3.org/2000/svg">
<rect x="0.170898" y="0.183899" width="30.0143" height="30.0143" rx="5" fill="#7D7D7D"/>
<path d="M14.7219 12.0996C13.902 12.0996 13.1157 12.4253 12.5359 13.0051C11.9562 13.5848 11.6305 14.3711 11.6305 15.191C11.6305 16.0109 11.9562 16.7973 12.5359 17.377C13.1157 17.9568 13.902 18.2825 14.7219 18.2825C15.5418 18.2825 16.3281 17.9568 16.9079 17.377C17.4877 16.7973 17.8134 16.0109 17.8134 15.191C17.8134 14.3711 17.4877 13.5848 16.9079 13.0051C16.3281 12.4253 15.5418 12.0996 14.7219 12.0996ZM13.0271 15.191C13.0271 14.7415 13.2056 14.3104 13.5235 13.9926C13.8413 13.6747 14.2724 13.4962 14.7219 13.4962C15.1714 13.4962 15.6025 13.6747 15.9204 13.9926C16.2382 14.3104 16.4168 14.7415 16.4168 15.191C16.4168 15.6405 16.2382 16.0716 15.9204 16.3895C15.6025 16.7073 15.1714 16.8859 14.7219 16.8859C14.2724 16.8859 13.8413 16.7073 13.5235 16.3895C13.2056 16.0716 13.0271 15.6405 13.0271 15.191Z" fill="white" stroke="white" stroke-width="0.2"/>
<mask id="path-3-outside-1_424_97" maskUnits="userSpaceOnUse" x="5.60254" y="5.61554" width="18" height="19" fill="black">
<rect fill="white" x="5.60254" y="5.61554" width="18" height="19"/>
<path fill-rule="evenodd" clip-rule="evenodd" d="M14.7022 6.61554C14.3472 6.61554 14.0512 6.61554 13.8087 6.63149C13.5609 6.64182 13.3164 6.69303 13.0852 6.78306C12.819 6.89322 12.577 7.05474 12.3732 7.25841C12.1694 7.46208 12.0077 7.7039 11.8974 7.97007C11.7817 8.24927 11.7506 8.54443 11.7379 8.86511C11.7366 8.98239 11.7055 9.09743 11.6476 9.19943C11.5897 9.30142 11.5069 9.38704 11.4068 9.44825C11.3038 9.50449 11.1882 9.53363 11.0708 9.53293C10.9535 9.53223 10.8382 9.50172 10.7359 9.44426C10.4519 9.29429 10.1807 9.17383 9.88076 9.13394C9.59513 9.09637 9.3049 9.11543 9.02664 9.19003C8.74838 9.26462 8.48753 9.3933 8.259 9.5687C8.06577 9.72416 7.89948 9.9104 7.7668 10.1199C7.63119 10.3225 7.48281 10.5786 7.30572 10.8857L7.28578 10.9208C7.10788 11.228 6.96031 11.484 6.85341 11.7026C6.74173 11.9308 6.65398 12.1557 6.62207 12.4046C6.54597 12.9813 6.70207 13.5647 7.05603 14.0264C7.24031 14.2665 7.48042 14.4412 7.75164 14.6119C7.85276 14.6717 7.93701 14.7562 7.99646 14.8575C8.05591 14.9588 8.08861 15.0736 8.09147 15.191C8.08861 15.3085 8.05591 15.4232 7.99646 15.5246C7.93701 15.6259 7.85276 15.7104 7.75164 15.7702C7.48042 15.9409 7.2411 16.1156 7.05603 16.3557C6.88063 16.5842 6.75195 16.8451 6.67736 17.1234C6.60276 17.4016 6.5837 17.6919 6.62127 17.9775C6.65398 18.2264 6.74093 18.4513 6.85261 18.6795C6.96031 18.898 7.10788 19.1541 7.28578 19.4612L7.30572 19.4963C7.48281 19.8035 7.63119 20.0595 7.7668 20.2622C7.908 20.472 8.05957 20.661 8.259 20.8126C8.48747 20.9881 8.74829 21.1169 9.02655 21.1917C9.30482 21.2664 9.59508 21.2856 9.88076 21.2481C10.1807 21.2082 10.4519 21.0886 10.7359 20.9378C10.8381 20.8804 10.9532 20.85 11.0704 20.8493C11.1877 20.8486 11.3031 20.8777 11.406 20.9338C11.5066 20.9946 11.59 21.08 11.6482 21.1821C11.7065 21.2842 11.7376 21.3995 11.7387 21.517C11.7506 21.8377 11.7817 22.1328 11.8982 22.412C12.0084 22.6782 12.1699 22.9202 12.3736 23.124C12.5772 23.3278 12.819 23.4895 13.0852 23.5998C13.3165 23.6955 13.5559 23.733 13.8087 23.7498C14.0512 23.7665 14.3472 23.7665 14.7022 23.7665H14.7421C15.0971 23.7665 15.393 23.7665 15.6355 23.7506C15.8892 23.733 16.1277 23.6955 16.3591 23.599C16.6253 23.4889 16.8672 23.3273 17.071 23.1237C17.2748 22.92 17.4365 22.6782 17.5469 22.412C17.6625 22.1328 17.6936 21.8377 17.7064 21.517C17.7075 21.3996 17.7385 21.2844 17.7964 21.1822C17.8544 21.0801 17.9373 20.9943 18.0375 20.933C18.1405 20.8769 18.2562 20.8479 18.3735 20.8487C18.4909 20.8496 18.6061 20.8802 18.7083 20.9378C18.9923 21.0878 19.2636 21.2082 19.5635 21.2473C20.1402 21.3234 20.7236 21.1673 21.1853 20.8134C21.3847 20.6602 21.5363 20.472 21.6775 20.2622C21.8131 20.0595 21.9614 19.8035 22.1385 19.4963L22.1585 19.4612C22.3364 19.1541 22.484 18.898 22.5909 18.6795C22.7025 18.4513 22.7903 18.2256 22.8222 17.9775C22.8983 17.4007 22.7422 16.8174 22.3882 16.3557C22.204 16.1156 21.9638 15.9409 21.6926 15.7702C21.5915 15.7104 21.5073 15.6259 21.4478 15.5246C21.3884 15.4232 21.3557 15.3085 21.3528 15.191C21.3528 14.9693 21.474 14.7491 21.6926 14.6119C21.9638 14.4412 22.2032 14.2665 22.3882 14.0264C22.5636 13.7978 22.6923 13.537 22.7669 13.2587C22.8415 12.9805 22.8606 12.6902 22.823 12.4046C22.785 12.1595 22.7069 11.9223 22.5916 11.7026C22.4555 11.4376 22.311 11.1768 22.1585 10.9208L22.1385 10.8857C21.9928 10.6258 21.8391 10.3704 21.6775 10.1199C21.5448 9.91062 21.3785 9.72465 21.1853 9.5695C20.9568 9.39396 20.696 9.26514 20.4177 9.1904C20.1394 9.11567 19.8492 9.09649 19.5635 9.13394C19.2636 9.17383 18.9923 9.29349 18.7083 9.44426C18.6061 9.50158 18.491 9.53201 18.3738 9.53271C18.2566 9.53341 18.1412 9.50435 18.0383 9.44825C17.9379 9.38723 17.8547 9.3017 17.7965 9.19969C17.7383 9.09768 17.7071 8.98255 17.7056 8.86511C17.6936 8.54443 17.6625 8.24927 17.5461 7.97007C17.4359 7.70383 17.2744 7.4619 17.0707 7.25809C16.867 7.05429 16.6252 6.8926 16.3591 6.78226C16.1277 6.68654 15.8884 6.64904 15.6355 6.63229C15.393 6.61554 15.0971 6.61554 14.7421 6.61554H14.7022ZM13.5431 7.8879C13.6045 7.86238 13.6979 7.83924 13.8901 7.82568C14.0871 7.81212 14.3424 7.81212 14.7221 7.81212C15.1018 7.81212 15.3571 7.81212 15.5542 7.82568C15.7464 7.83924 15.8397 7.86238 15.9012 7.8879C16.1461 7.98922 16.3399 8.18306 16.4412 8.42796C16.4731 8.50454 16.4995 8.625 16.5098 8.90978C16.5338 9.54158 16.86 10.1502 17.4392 10.4845C18.0183 10.8195 18.7083 10.7972 19.2675 10.502C19.5196 10.3688 19.6369 10.3313 19.7199 10.321C19.982 10.2863 20.2471 10.3572 20.4569 10.518C20.5096 10.5587 20.5766 10.6281 20.6843 10.7876C20.7952 10.952 20.9228 11.1729 21.1127 11.5016C21.3025 11.8302 21.4294 12.052 21.5163 12.2291C21.6017 12.4022 21.628 12.4947 21.636 12.561C21.6706 12.8231 21.5997 13.0882 21.4389 13.298C21.3879 13.3643 21.2969 13.4472 21.056 13.5988C20.52 13.9354 20.1562 14.5225 20.1562 15.191C20.1562 15.8595 20.52 16.4467 21.056 16.7833C21.2969 16.9349 21.3879 17.0178 21.4389 17.084C21.6001 17.2938 21.6703 17.5587 21.636 17.8211C21.628 17.8873 21.6009 17.9807 21.5163 18.153C21.4294 18.3309 21.3025 18.5518 21.1127 18.8805C20.9228 19.2092 20.7944 19.4301 20.6843 19.5945C20.5766 19.754 20.5096 19.8234 20.4569 19.8641C20.2471 20.0249 19.982 20.0958 19.7199 20.0611C19.6369 20.0508 19.5204 20.0133 19.2675 19.88C18.7091 19.5849 18.0183 19.5626 17.4392 19.8968C16.86 20.2318 16.5338 20.8405 16.5098 21.4723C16.4995 21.7571 16.4731 21.8775 16.4412 21.9541C16.3911 22.0752 16.3176 22.1852 16.2249 22.2779C16.1323 22.3706 16.0223 22.4441 15.9012 22.4942C15.8397 22.5197 15.7464 22.5428 15.5542 22.5564C15.3571 22.57 15.1018 22.57 14.7221 22.57C14.3424 22.57 14.0871 22.57 13.8901 22.5564C13.6979 22.5428 13.6045 22.5197 13.5431 22.4942C13.422 22.4441 13.312 22.3706 13.2193 22.2779C13.1266 22.1852 13.0532 22.0752 13.003 21.9541C12.9711 21.8775 12.9448 21.7571 12.9344 21.4723C12.9105 20.8405 12.5842 20.2318 12.0051 19.8976C11.4259 19.5626 10.7359 19.5849 10.1767 19.88C9.92464 20.0133 9.80737 20.0508 9.72441 20.0611C9.46231 20.0958 9.19718 20.0249 8.98731 19.8641C8.93466 19.8234 8.86766 19.754 8.75996 19.5945C8.60992 19.3609 8.46706 19.1228 8.33159 18.8805C8.14173 18.5518 8.01489 18.3301 7.92794 18.153C7.84258 17.9799 7.81626 17.8873 7.80828 17.8211C7.77365 17.559 7.84452 17.2939 8.00532 17.084C8.05637 17.0178 8.14731 16.9349 8.38823 16.7833C8.92429 16.4467 9.28806 15.8595 9.28806 15.191C9.28806 14.5225 8.92429 13.9354 8.38823 13.5988C8.14731 13.4472 8.05637 13.3643 8.00532 13.298C7.84452 13.0882 7.77365 12.8231 7.80828 12.561C7.81626 12.4947 7.84338 12.4014 7.92794 12.2291C8.01489 12.0512 8.14173 11.8302 8.33159 11.5016C8.52145 11.1729 8.64988 10.952 8.75996 10.7876C8.86766 10.6281 8.93466 10.5587 8.98731 10.518C9.19718 10.3572 9.46231 10.2863 9.72441 10.321C9.80737 10.3313 9.92384 10.3688 10.1767 10.502C10.7351 10.7972 11.4259 10.8195 12.0051 10.4845C12.5842 10.1502 12.9105 9.54158 12.9344 8.90978C12.9448 8.625 12.9711 8.50454 13.003 8.42796C13.1044 8.18306 13.2982 7.98922 13.5431 7.8879Z"/>
</mask>
<path fill-rule="evenodd" clip-rule="evenodd" d="M14.7022 6.61554C14.3472 6.61554 14.0512 6.61554 13.8087 6.63149C13.5609 6.64182 13.3164 6.69303 13.0852 6.78306C12.819 6.89322 12.577 7.05474 12.3732 7.25841C12.1694 7.46208 12.0077 7.7039 11.8974 7.97007C11.7817 8.24927 11.7506 8.54443 11.7379 8.86511C11.7366 8.98239 11.7055 9.09743 11.6476 9.19943C11.5897 9.30142 11.5069 9.38704 11.4068 9.44825C11.3038 9.50449 11.1882 9.53363 11.0708 9.53293C10.9535 9.53223 10.8382 9.50172 10.7359 9.44426C10.4519 9.29429 10.1807 9.17383 9.88076 9.13394C9.59513 9.09637 9.3049 9.11543 9.02664 9.19003C8.74838 9.26462 8.48753 9.3933 8.259 9.5687C8.06577 9.72416 7.89948 9.9104 7.7668 10.1199C7.63119 10.3225 7.48281 10.5786 7.30572 10.8857L7.28578 10.9208C7.10788 11.228 6.96031 11.484 6.85341 11.7026C6.74173 11.9308 6.65398 12.1557 6.62207 12.4046C6.54597 12.9813 6.70207 13.5647 7.05603 14.0264C7.24031 14.2665 7.48042 14.4412 7.75164 14.6119C7.85276 14.6717 7.93701 14.7562 7.99646 14.8575C8.05591 14.9588 8.08861 15.0736 8.09147 15.191C8.08861 15.3085 8.05591 15.4232 7.99646 15.5246C7.93701 15.6259 7.85276 15.7104 7.75164 15.7702C7.48042 15.9409 7.2411 16.1156 7.05603 16.3557C6.88063 16.5842 6.75195 16.8451 6.67736 17.1234C6.60276 17.4016 6.5837 17.6919 6.62127 17.9775C6.65398 18.2264 6.74093 18.4513 6.85261 18.6795C6.96031 18.898 7.10788 19.1541 7.28578 19.4612L7.30572 19.4963C7.48281 19.8035 7.63119 20.0595 7.7668 20.2622C7.908 20.472 8.05957 20.661 8.259 20.8126C8.48747 20.9881 8.74829 21.1169 9.02655 21.1917C9.30482 21.2664 9.59508 21.2856 9.88076 21.2481C10.1807 21.2082 10.4519 21.0886 10.7359 20.9378C10.8381 20.8804 10.9532 20.85 11.0704 20.8493C11.1877 20.8486 11.3031 20.8777 11.406 20.9338C11.5066 20.9946 11.59 21.08 11.6482 21.1821C11.7065 21.2842 11.7376 21.3995 11.7387 21.517C11.7506 21.8377 11.7817 22.1328 11.8982 22.412C12.0084 22.6782 12.1699 22.9202 12.3736 23.124C12.5772 23.3278 12.819 23.4895 13.0852 23.5998C13.3165 23.6955 13.5559 23.733 13.8087 23.7498C14.0512 23.7665 14.3472 23.7665 14.7022 23.7665H14.7421C15.0971 23.7665 15.393 23.7665 15.6355 23.7506C15.8892 23.733 16.1277 23.6955 16.3591 23.599C16.6253 23.4889 16.8672 23.3273 17.071 23.1237C17.2748 22.92 17.4365 22.6782 17.5469 22.412C17.6625 22.1328 17.6936 21.8377 17.7064 21.517C17.7075 21.3996 17.7385 21.2844 17.7964 21.1822C17.8544 21.0801 17.9373 20.9943 18.0375 20.933C18.1405 20.8769 18.2562 20.8479 18.3735 20.8487C18.4909 20.8496 18.6061 20.8802 18.7083 20.9378C18.9923 21.0878 19.2636 21.2082 19.5635 21.2473C20.1402 21.3234 20.7236 21.1673 21.1853 20.8134C21.3847 20.6602 21.5363 20.472 21.6775 20.2622C21.8131 20.0595 21.9614 19.8035 22.1385 19.4963L22.1585 19.4612C22.3364 19.1541 22.484 18.898 22.5909 18.6795C22.7025 18.4513 22.7903 18.2256 22.8222 17.9775C22.8983 17.4007 22.7422 16.8174 22.3882 16.3557C22.204 16.1156 21.9638 15.9409 21.6926 15.7702C21.5915 15.7104 21.5073 15.6259 21.4478 15.5246C21.3884 15.4232 21.3557 15.3085 21.3528 15.191C21.3528 14.9693 21.474 14.7491 21.6926 14.6119C21.9638 14.4412 22.2032 14.2665 22.3882 14.0264C22.5636 13.7978 22.6923 13.537 22.7669 13.2587C22.8415 12.9805 22.8606 12.6902 22.823 12.4046C22.785 12.1595 22.7069 11.9223 22.5916 11.7026C22.4555 11.4376 22.311 11.1768 22.1585 10.9208L22.1385 10.8857C21.9928 10.6258 21.8391 10.3704 21.6775 10.1199C21.5448 9.91062 21.3785 9.72465 21.1853 9.5695C20.9568 9.39396 20.696 9.26514 20.4177 9.1904C20.1394 9.11567 19.8492 9.09649 19.5635 9.13394C19.2636 9.17383 18.9923 9.29349 18.7083 9.44426C18.6061 9.50158 18.491 9.53201 18.3738 9.53271C18.2566 9.53341 18.1412 9.50435 18.0383 9.44825C17.9379 9.38723 17.8547 9.3017 17.7965 9.19969C17.7383 9.09768 17.7071 8.98255 17.7056 8.86511C17.6936 8.54443 17.6625 8.24927 17.5461 7.97007C17.4359 7.70383 17.2744 7.4619 17.0707 7.25809C16.867 7.05429 16.6252 6.8926 16.3591 6.78226C16.1277 6.68654 15.8884 6.64904 15.6355 6.63229C15.393 6.61554 15.0971 6.61554 14.7421 6.61554H14.7022ZM13.5431 7.8879C13.6045 7.86238 13.6979 7.83924 13.8901 7.82568C14.0871 7.81212 14.3424 7.81212 14.7221 7.81212C15.1018 7.81212 15.3571 7.81212 15.5542 7.82568C15.7464 7.83924 15.8397 7.86238 15.9012 7.8879C16.1461 7.98922 16.3399 8.18306 16.4412 8.42796C16.4731 8.50454 16.4995 8.625 16.5098 8.90978C16.5338 9.54158 16.86 10.1502 17.4392 10.4845C18.0183 10.8195 18.7083 10.7972 19.2675 10.502C19.5196 10.3688 19.6369 10.3313 19.7199 10.321C19.982 10.2863 20.2471 10.3572 20.4569 10.518C20.5096 10.5587 20.5766 10.6281 20.6843 10.7876C20.7952 10.952 20.9228 11.1729 21.1127 11.5016C21.3025 11.8302 21.4294 12.052 21.5163 12.2291C21.6017 12.4022 21.628 12.4947 21.636 12.561C21.6706 12.8231 21.5997 13.0882 21.4389 13.298C21.3879 13.3643 21.2969 13.4472 21.056 13.5988C20.52 13.9354 20.1562 14.5225 20.1562 15.191C20.1562 15.8595 20.52 16.4467 21.056 16.7833C21.2969 16.9349 21.3879 17.0178 21.4389 17.084C21.6001 17.2938 21.6703 17.5587 21.636 17.8211C21.628 17.8873 21.6009 17.9807 21.5163 18.153C21.4294 18.3309 21.3025 18.5518 21.1127 18.8805C20.9228 19.2092 20.7944 19.4301 20.6843 19.5945C20.5766 19.754 20.5096 19.8234 20.4569 19.8641C20.2471 20.0249 19.982 20.0958 19.7199 20.0611C19.6369 20.0508 19.5204 20.0133 19.2675 19.88C18.7091 19.5849 18.0183 19.5626 17.4392 19.8968C16.86 20.2318 16.5338 20.8405 16.5098 21.4723C16.4995 21.7571 16.4731 21.8775 16.4412 21.9541C16.3911 22.0752 16.3176 22.1852 16.2249 22.2779C16.1323 22.3706 16.0223 22.4441 15.9012 22.4942C15.8397 22.5197 15.7464 22.5428 15.5542 22.5564C15.3571 22.57 15.1018 22.57 14.7221 22.57C14.3424 22.57 14.0871 22.57 13.8901 22.5564C13.6979 22.5428 13.6045 22.5197 13.5431 22.4942C13.422 22.4441 13.312 22.3706 13.2193 22.2779C13.1266 22.1852 13.0532 22.0752 13.003 21.9541C12.9711 21.8775 12.9448 21.7571 12.9344 21.4723C12.9105 20.8405 12.5842 20.2318 12.0051 19.8976C11.4259 19.5626 10.7359 19.5849 10.1767 19.88C9.92464 20.0133 9.80737 20.0508 9.72441 20.0611C9.46231 20.0958 9.19718 20.0249 8.98731 19.8641C8.93466 19.8234 8.86766 19.754 8.75996 19.5945C8.60992 19.3609 8.46706 19.1228 8.33159 18.8805C8.14173 18.5518 8.01489 18.3301 7.92794 18.153C7.84258 17.9799 7.81626 17.8873 7.80828 17.8211C7.77365 17.559 7.84452 17.2939 8.00532 17.084C8.05637 17.0178 8.14731 16.9349 8.38823 16.7833C8.92429 16.4467 9.28806 15.8595 9.28806 15.191C9.28806 14.5225 8.92429 13.9354 8.38823 13.5988C8.14731 13.4472 8.05637 13.3643 8.00532 13.298C7.84452 13.0882 7.77365 12.8231 7.80828 12.561C7.81626 12.4947 7.84338 12.4014 7.92794 12.2291C8.01489 12.0512 8.14173 11.8302 8.33159 11.5016C8.52145 11.1729 8.64988 10.952 8.75996 10.7876C8.86766 10.6281 8.93466 10.5587 8.98731 10.518C9.19718 10.3572 9.46231 10.2863 9.72441 10.321C9.80737 10.3313 9.92384 10.3688 10.1767 10.502C10.7351 10.7972 11.4259 10.8195 12.0051 10.4845C12.5842 10.1502 12.9105 9.54158 12.9344 8.90978C12.9448 8.625 12.9711 8.50454 13.003 8.42796C13.1044 8.18306 13.2982 7.98922 13.5431 7.8879Z" fill="white"/>
<path fill-rule="evenodd" clip-rule="evenodd" d="M14.7022 6.61554C14.3472 6.61554 14.0512 6.61554 13.8087 6.63149C13.5609 6.64182 13.3164 6.69303 13.0852 6.78306C12.819 6.89322 12.577 7.05474 12.3732 7.25841C12.1694 7.46208 12.0077 7.7039 11.8974 7.97007C11.7817 8.24927 11.7506 8.54443 11.7379 8.86511C11.7366 8.98239 11.7055 9.09743 11.6476 9.19943C11.5897 9.30142 11.5069 9.38704 11.4068 9.44825C11.3038 9.50449 11.1882 9.53363 11.0708 9.53293C10.9535 9.53223 10.8382 9.50172 10.7359 9.44426C10.4519 9.29429 10.1807 9.17383 9.88076 9.13394C9.59513 9.09637 9.3049 9.11543 9.02664 9.19003C8.74838 9.26462 8.48753 9.3933 8.259 9.5687C8.06577 9.72416 7.89948 9.9104 7.7668 10.1199C7.63119 10.3225 7.48281 10.5786 7.30572 10.8857L7.28578 10.9208C7.10788 11.228 6.96031 11.484 6.85341 11.7026C6.74173 11.9308 6.65398 12.1557 6.62207 12.4046C6.54597 12.9813 6.70207 13.5647 7.05603 14.0264C7.24031 14.2665 7.48042 14.4412 7.75164 14.6119C7.85276 14.6717 7.93701 14.7562 7.99646 14.8575C8.05591 14.9588 8.08861 15.0736 8.09147 15.191C8.08861 15.3085 8.05591 15.4232 7.99646 15.5246C7.93701 15.6259 7.85276 15.7104 7.75164 15.7702C7.48042 15.9409 7.2411 16.1156 7.05603 16.3557C6.88063 16.5842 6.75195 16.8451 6.67736 17.1234C6.60276 17.4016 6.5837 17.6919 6.62127 17.9775C6.65398 18.2264 6.74093 18.4513 6.85261 18.6795C6.96031 18.898 7.10788 19.1541 7.28578 19.4612L7.30572 19.4963C7.48281 19.8035 7.63119 20.0595 7.7668 20.2622C7.908 20.472 8.05957 20.661 8.259 20.8126C8.48747 20.9881 8.74829 21.1169 9.02655 21.1917C9.30482 21.2664 9.59508 21.2856 9.88076 21.2481C10.1807 21.2082 10.4519 21.0886 10.7359 20.9378C10.8381 20.8804 10.9532 20.85 11.0704 20.8493C11.1877 20.8486 11.3031 20.8777 11.406 20.9338C11.5066 20.9946 11.59 21.08 11.6482 21.1821C11.7065 21.2842 11.7376 21.3995 11.7387 21.517C11.7506 21.8377 11.7817 22.1328 11.8982 22.412C12.0084 22.6782 12.1699 22.9202 12.3736 23.124C12.5772 23.3278 12.819 23.4895 13.0852 23.5998C13.3165 23.6955 13.5559 23.733 13.8087 23.7498C14.0512 23.7665 14.3472 23.7665 14.7022 23.7665H14.7421C15.0971 23.7665 15.393 23.7665 15.6355 23.7506C15.8892 23.733 16.1277 23.6955 16.3591 23.599C16.6253 23.4889 16.8672 23.3273 17.071 23.1237C17.2748 22.92 17.4365 22.6782 17.5469 22.412C17.6625 22.1328 17.6936 21.8377 17.7064 21.517C17.7075 21.3996 17.7385 21.2844 17.7964 21.1822C17.8544 21.0801 17.9373 20.9943 18.0375 20.933C18.1405 20.8769 18.2562 20.8479 18.3735 20.8487C18.4909 20.8496 18.6061 20.8802 18.7083 20.9378C18.9923 21.0878 19.2636 21.2082 19.5635 21.2473C20.1402 21.3234 20.7236 21.1673 21.1853 20.8134C21.3847 20.6602 21.5363 20.472 21.6775 20.2622C21.8131 20.0595 21.9614 19.8035 22.1385 19.4963L22.1585 19.4612C22.3364 19.1541 22.484 18.898 22.5909 18.6795C22.7025 18.4513 22.7903 18.2256 22.8222 17.9775C22.8983 17.4007 22.7422 16.8174 22.3882 16.3557C22.204 16.1156 21.9638 15.9409 21.6926 15.7702C21.5915 15.7104 21.5073 15.6259 21.4478 15.5246C21.3884 15.4232 21.3557 15.3085 21.3528 15.191C21.3528 14.9693 21.474 14.7491 21.6926 14.6119C21.9638 14.4412 22.2032 14.2665 22.3882 14.0264C22.5636 13.7978 22.6923 13.537 22.7669 13.2587C22.8415 12.9805 22.8606 12.6902 22.823 12.4046C22.785 12.1595 22.7069 11.9223 22.5916 11.7026C22.4555 11.4376 22.311 11.1768 22.1585 10.9208L22.1385 10.8857C21.9928 10.6258 21.8391 10.3704 21.6775 10.1199C21.5448 9.91062 21.3785 9.72465 21.1853 9.5695C20.9568 9.39396 20.696 9.26514 20.4177 9.1904C20.1394 9.11567 19.8492 9.09649 19.5635 9.13394C19.2636 9.17383 18.9923 9.29349 18.7083 9.44426C18.6061 9.50158 18.491 9.53201 18.3738 9.53271C18.2566 9.53341 18.1412 9.50435 18.0383 9.44825C17.9379 9.38723 17.8547 9.3017 17.7965 9.19969C17.7383 9.09768 17.7071 8.98255 17.7056 8.86511C17.6936 8.54443 17.6625 8.24927 17.5461 7.97007C17.4359 7.70383 17.2744 7.4619 17.0707 7.25809C16.867 7.05429 16.6252 6.8926 16.3591 6.78226C16.1277 6.68654 15.8884 6.64904 15.6355 6.63229C15.393 6.61554 15.0971 6.61554 14.7421 6.61554H14.7022ZM13.5431 7.8879C13.6045 7.86238 13.6979 7.83924 13.8901 7.82568C14.0871 7.81212 14.3424 7.81212 14.7221 7.81212C15.1018 7.81212 15.3571 7.81212 15.5542 7.82568C15.7464 7.83924 15.8397 7.86238 15.9012 7.8879C16.1461 7.98922 16.3399 8.18306 16.4412 8.42796C16.4731 8.50454 16.4995 8.625 16.5098 8.90978C16.5338 9.54158 16.86 10.1502 17.4392 10.4845C18.0183 10.8195 18.7083 10.7972 19.2675 10.502C19.5196 10.3688 19.6369 10.3313 19.7199 10.321C19.982 10.2863 20.2471 10.3572 20.4569 10.518C20.5096 10.5587 20.5766 10.6281 20.6843 10.7876C20.7952 10.952 20.9228 11.1729 21.1127 11.5016C21.3025 11.8302 21.4294 12.052 21.5163 12.2291C21.6017 12.4022 21.628 12.4947 21.636 12.561C21.6706 12.8231 21.5997 13.0882 21.4389 13.298C21.3879 13.3643 21.2969 13.4472 21.056 13.5988C20.52 13.9354 20.1562 14.5225 20.1562 15.191C20.1562 15.8595 20.52 16.4467 21.056 16.7833C21.2969 16.9349 21.3879 17.0178 21.4389 17.084C21.6001 17.2938 21.6703 17.5587 21.636 17.8211C21.628 17.8873 21.6009 17.9807 21.5163 18.153C21.4294 18.3309 21.3025 18.5518 21.1127 18.8805C20.9228 19.2092 20.7944 19.4301 20.6843 19.5945C20.5766 19.754 20.5096 19.8234 20.4569 19.8641C20.2471 20.0249 19.982 20.0958 19.7199 20.0611C19.6369 20.0508 19.5204 20.0133 19.2675 19.88C18.7091 19.5849 18.0183 19.5626 17.4392 19.8968C16.86 20.2318 16.5338 20.8405 16.5098 21.4723C16.4995 21.7571 16.4731 21.8775 16.4412 21.9541C16.3911 22.0752 16.3176 22.1852 16.2249 22.2779C16.1323 22.3706 16.0223 22.4441 15.9012 22.4942C15.8397 22.5197 15.7464 22.5428 15.5542 22.5564C15.3571 22.57 15.1018 22.57 14.7221 22.57C14.3424 22.57 14.0871 22.57 13.8901 22.5564C13.6979 22.5428 13.6045 22.5197 13.5431 22.4942C13.422 22.4441 13.312 22.3706 13.2193 22.2779C13.1266 22.1852 13.0532 22.0752 13.003 21.9541C12.9711 21.8775 12.9448 21.7571 12.9344 21.4723C12.9105 20.8405 12.5842 20.2318 12.0051 19.8976C11.4259 19.5626 10.7359 19.5849 10.1767 19.88C9.92464 20.0133 9.80737 20.0508 9.72441 20.0611C9.46231 20.0958 9.19718 20.0249 8.98731 19.8641C8.93466 19.8234 8.86766 19.754 8.75996 19.5945C8.60992 19.3609 8.46706 19.1228 8.33159 18.8805C8.14173 18.5518 8.01489 18.3301 7.92794 18.153C7.84258 17.9799 7.81626 17.8873 7.80828 17.8211C7.77365 17.559 7.84452 17.2939 8.00532 17.084C8.05637 17.0178 8.14731 16.9349 8.38823 16.7833C8.92429 16.4467 9.28806 15.8595 9.28806 15.191C9.28806 14.5225 8.92429 13.9354 8.38823 13.5988C8.14731 13.4472 8.05637 13.3643 8.00532 13.298C7.84452 13.0882 7.77365 12.8231 7.80828 12.561C7.81626 12.4947 7.84338 12.4014 7.92794 12.2291C8.01489 12.0512 8.14173 11.8302 8.33159 11.5016C8.52145 11.1729 8.64988 10.952 8.75996 10.7876C8.86766 10.6281 8.93466 10.5587 8.98731 10.518C9.19718 10.3572 9.46231 10.2863 9.72441 10.321C9.80737 10.3313 9.92384 10.3688 10.1767 10.502C10.7351 10.7972 11.4259 10.8195 12.0051 10.4845C12.5842 10.1502 12.9105 9.54158 12.9344 8.90978C12.9448 8.625 12.9711 8.50454 13.003 8.42796C13.1044 8.18306 13.2982 7.98922 13.5431 7.8879Z" stroke="white" stroke-width="0.4" mask="url(#path-3-outside-1_424_97)"/>
</svg>
