<svg width="31" height="31" viewBox="0 0 31 31" fill="none" xmlns="http://www.w3.org/2000/svg">
<rect x="0.170898" y="0.394653" width="30.0143" height="30.0143" rx="5" fill="#12AB06"/>
<path d="M19.0765 16.2567C19.7194 16.2567 20.2853 15.9052 20.5768 15.3737L23.6459 9.80969C23.7182 9.67974 23.7553 9.53318 23.7535 9.3845C23.7517 9.23583 23.7111 9.0902 23.6358 8.96203C23.5604 8.83385 23.4529 8.72757 23.3239 8.6537C23.1948 8.57983 23.0488 8.54093 22.9001 8.54086H10.2118L9.40596 6.82623H6.60254V8.54086H8.31717L11.4035 15.0479L10.2461 17.1397C9.62028 18.2885 10.4433 19.6859 11.7464 19.6859H22.0342V17.9713H11.7464L12.6895 16.2567H19.0765ZM11.0263 10.2555H21.4426L19.0765 14.5421H13.0581L11.0263 10.2555ZM11.7464 20.5433C10.8034 20.5433 10.0404 21.3148 10.0404 22.2579C10.0404 23.2009 10.8034 23.9725 11.7464 23.9725C12.6895 23.9725 13.4611 23.2009 13.4611 22.2579C13.4611 21.3148 12.6895 20.5433 11.7464 20.5433ZM20.3196 20.5433C19.3765 20.5433 18.6135 21.3148 18.6135 22.2579C18.6135 23.2009 19.3765 23.9725 20.3196 23.9725C21.2626 23.9725 22.0342 23.2009 22.0342 22.2579C22.0342 21.3148 21.2626 20.5433 20.3196 20.5433Z" fill="white"/>
</svg>
