<svg width="31" height="31" viewBox="0 0 31 31" fill="none" xmlns="http://www.w3.org/2000/svg">
<rect x="0.170898" y="0.969482" width="30.0143" height="30.0143" rx="5" fill="#00C5D8"/>
<path d="M11.7471 21.1181C10.804 21.1181 10.041 21.8897 10.041 22.8327C10.041 23.7758 10.804 24.5474 11.7471 24.5474C12.6901 24.5474 13.4617 23.7758 13.4617 22.8327C13.4617 21.8897 12.6901 21.1181 11.7471 21.1181ZM20.3202 21.1181C19.3772 21.1181 18.6142 21.8897 18.6142 22.8327C18.6142 23.7758 19.3772 24.5474 20.3202 24.5474C21.2633 24.5474 22.0348 23.7758 22.0348 22.8327C22.0348 21.8897 21.2633 21.1181 20.3202 21.1181Z" fill="white"/>
<path fill-rule="evenodd" clip-rule="evenodd" d="M18.5913 13.833C18.4071 13.833 18.2304 13.9083 18.1002 14.0422C17.9699 14.1762 17.8967 14.3579 17.8967 14.5474C17.8967 14.7368 17.9699 14.9185 18.1002 15.0525C18.2304 15.1865 18.4071 15.2617 18.5913 15.2617H20.4861C20.9658 15.2713 21.4227 15.4741 21.7586 15.8264C22.0945 16.1787 22.2827 16.6524 22.2827 17.1459C22.2827 17.6393 22.0945 18.1131 21.7586 18.4654C21.4227 18.8177 20.9658 19.0204 20.4861 19.03H17.3911V17.7956C17.391 17.6543 17.3503 17.5163 17.274 17.3988C17.1976 17.2814 17.0892 17.1898 16.9623 17.1358C16.8354 17.0817 16.6957 17.0676 16.561 17.0951C16.4263 17.1227 16.3026 17.1907 16.2054 17.2905L14.312 19.2379C14.2148 19.3378 14.1484 19.465 14.1212 19.6035C14.094 19.742 14.1072 19.8857 14.1592 20.0166C14.1932 20.1016 14.2432 20.1809 14.3106 20.2502L16.2054 22.199C16.3026 22.2989 16.4263 22.3669 16.561 22.3944C16.6957 22.422 16.8354 22.4078 16.9623 22.3538C17.0892 22.2997 17.1976 22.2082 17.274 22.0907C17.3503 21.9733 17.391 21.8352 17.3911 21.6939V20.4588H20.4861C20.9131 20.4652 21.3371 20.3843 21.7334 20.2207C22.1296 20.0571 22.4904 19.8141 22.7945 19.5058C23.0987 19.1976 23.3402 18.8302 23.5051 18.425C23.67 18.0199 23.7549 17.5851 23.7549 17.1459C23.7549 16.7067 23.67 16.2719 23.5051 15.8667C23.3402 15.4616 23.0987 15.0942 22.7945 14.7859C22.4904 14.4777 22.1296 14.2347 21.7334 14.0711C21.3371 13.9075 20.9131 13.8265 20.4861 13.833H18.5913Z" fill="white"/>
<path fill-rule="evenodd" clip-rule="evenodd" d="M20.289 16.3336C19.9784 16.6431 19.5491 16.8314 19.0784 16.8314H18.1838C18.1803 16.8258 18.1767 16.8202 18.1731 16.8147C17.9826 16.5215 17.7087 16.2884 17.3827 16.1495C17.0562 16.0105 16.6952 15.9736 16.3465 16.0449C15.9981 16.1161 15.6822 16.2913 15.4372 16.5432L15.157 16.8314H12.6914L11.7484 18.546H13.4921C13.2766 18.7873 13.1315 19.0819 13.0696 19.397C13.0132 19.6843 13.0275 19.9809 13.1107 20.2607H11.7484C10.4453 20.2607 9.62224 18.8632 10.2481 17.7144L11.4055 15.6226L8.31912 9.11557H6.60449V7.40094H9.40791L10.2138 9.11557H22.902C23.0507 9.11564 23.1968 9.15454 23.3258 9.22841C23.4549 9.30227 23.5624 9.40856 23.6377 9.53673C23.7131 9.66491 23.7537 9.81054 23.7554 9.95921C23.7572 10.1079 23.7201 10.2544 23.6479 10.3844L22.1575 13.0863C22.1525 13.0843 22.1476 13.0822 22.1427 13.0802C21.6148 12.8623 21.0493 12.7536 20.4789 12.761H20.3789L21.4448 10.8302H11.0284L13.0602 15.1167H16.9172C17.0013 15.3696 17.1415 15.6039 17.3319 15.7997C17.6607 16.1379 18.1132 16.3336 18.5916 16.3336H20.289ZM20.9226 15.3249C20.7813 15.2862 20.635 15.2647 20.4864 15.2617H18.5916C18.4393 15.2617 18.2922 15.2103 18.1721 15.1167H19.0786L19.7872 13.8329H20.4864C20.8784 13.827 21.2678 13.8947 21.6356 14.0324L20.9226 15.3249ZM14.5435 19.0001L14.3123 19.2379C14.2151 19.3377 14.1487 19.4649 14.1215 19.6035C14.0943 19.742 14.1075 19.8857 14.1595 20.0165C14.1768 20.0597 14.1981 20.1014 14.2238 20.141C14.4754 19.9916 14.644 19.7172 14.644 19.4033C14.644 19.2576 14.6076 19.1203 14.5435 19.0001Z" fill="white"/>
</svg>
