<svg width="31" height="31" viewBox="0 0 31 31" fill="none" xmlns="http://www.w3.org/2000/svg">
<rect x="0.170898" y="0.212433" width="30.0143" height="30.0143" rx="5" fill="#FF6E00"/>
<path d="M8.31764 10.0743H6.60254V22.08C6.60254 23.0233 7.37433 23.7951 8.31764 23.7951H20.3233V22.08H8.31764V10.0743ZM22.0384 6.64407H11.7478C10.8045 6.64407 10.0327 7.41587 10.0327 8.35917V18.6498C10.0327 19.5931 10.8045 20.3649 11.7478 20.3649H22.0384C22.9817 20.3649 23.7535 19.5931 23.7535 18.6498V8.35917C23.7535 7.41587 22.9817 6.64407 22.0384 6.64407ZM22.0384 18.6498H11.7478V8.35917H22.0384V18.6498ZM13.4629 12.6469H20.3233V14.362H13.4629V12.6469ZM13.4629 15.2196H16.8931V16.9347H13.4629V15.2196ZM13.4629 10.0743H20.3233V11.7894H13.4629V10.0743Z" fill="white"/>
</svg>
