<svg width="31" height="31" viewBox="0 0 31 31" fill="none" xmlns="http://www.w3.org/2000/svg">
<rect x="0.170898" y="0.0549316" width="30.0143" height="30.0143" rx="5" fill="#009990"/>
<path fill-rule="evenodd" clip-rule="evenodd" d="M13.5094 9.32723C13.0373 9.32723 12.5804 9.51996 12.2404 9.86968C11.8997 10.2201 11.705 10.6994 11.705 11.2031C11.705 11.7069 11.8997 12.1862 12.2404 12.5366C12.5804 12.8863 13.0373 13.079 13.5094 13.079C13.9816 13.079 14.4385 12.8863 14.7785 12.5366C15.1191 12.1862 15.3139 11.7069 15.3139 11.2031C15.3139 10.6994 15.1191 10.2201 14.7785 9.86968C14.4385 9.51996 13.9816 9.32723 13.5094 9.32723ZM11.2412 8.89829C11.8394 8.28308 12.6548 7.93372 13.5094 7.93372C14.364 7.93372 15.1795 8.28308 15.7776 8.89829C16.3751 9.51283 16.7074 10.3423 16.7074 11.2031C16.7074 12.064 16.3751 12.8934 15.7776 13.508C15.1795 14.1232 14.364 14.4725 13.5094 14.4725C12.6548 14.4725 11.8394 14.1232 11.2412 13.508C10.6438 12.8934 10.3115 12.064 10.3115 11.2031C10.3115 10.3423 10.6438 9.51283 11.2412 8.89829ZM17.4961 11.7045C17.6928 11.3738 18.1204 11.2651 18.4511 11.4618C18.8689 11.7103 19.225 12.0517 19.4939 12.4591C19.7627 12.8665 19.9378 13.3298 20.0071 13.8143C20.0765 14.2988 20.0385 14.7933 19.8959 15.2611C19.7531 15.729 19.509 16.1593 19.1803 16.5191C18.8516 16.8791 18.4466 17.1594 17.9949 17.3377C17.5431 17.5161 17.0572 17.5873 16.5738 17.5456C16.0905 17.5039 15.6236 17.3504 15.2081 17.0978C14.7927 16.8452 14.4399 16.5004 14.1749 16.0904C13.966 15.7672 14.0586 15.3359 14.3818 15.127C14.705 14.9181 15.1363 15.0107 15.3452 15.3339C15.4975 15.5696 15.6986 15.7651 15.9321 15.9071C16.1655 16.049 16.4258 16.1341 16.6937 16.1573C16.9615 16.1804 17.2313 16.141 17.4833 16.0415C17.7353 15.942 17.964 15.7845 18.1514 15.5794C18.3389 15.3741 18.48 15.1265 18.563 14.8546C18.6459 14.5826 18.6681 14.2944 18.6277 14.0118C18.5872 13.7292 18.4854 13.4609 18.3308 13.2267C18.1763 12.9926 17.9735 12.7991 17.7388 12.6595C17.408 12.4628 17.2994 12.0352 17.4961 11.7045ZM6.97656 12.9182C6.97656 12.5334 7.28851 12.2215 7.67332 12.2215H9.34078C9.72559 12.2215 10.0375 12.5334 10.0375 12.9182C10.0375 13.303 9.72559 13.615 9.34078 13.615H8.37008V20.797H21.9837V13.615H21.4299C21.045 13.615 20.7331 13.303 20.7331 12.9182C20.7331 12.5334 21.045 12.2215 21.4299 12.2215H22.6804C23.0653 12.2215 23.3772 12.5334 23.3772 12.9182V21.4937C23.3772 21.8785 23.0653 22.1905 22.6804 22.1905H7.67332C7.28851 22.1905 6.97656 21.8785 6.97656 21.4937V12.9182Z" fill="white"/>
</svg>
