<svg width="31" height="31" viewBox="0 0 31 31" fill="none" xmlns="http://www.w3.org/2000/svg">
<rect x="0.170898" y="0.0834961" width="30.0143" height="30.0143" rx="5" fill="#00D88A"/>
<path fill-rule="evenodd" clip-rule="evenodd" d="M18.2163 15.7878C18.0321 15.7878 17.8554 15.863 17.7252 15.997C17.5949 16.131 17.5217 16.3127 17.5217 16.5021C17.5217 16.6916 17.5949 16.8733 17.7252 17.0073C17.8554 17.1412 18.0321 17.2165 18.2163 17.2165H20.1111C20.5908 17.2261 21.0477 17.4288 21.3836 17.7811C21.7195 18.1335 21.9077 18.6072 21.9077 19.1007C21.9077 19.5941 21.7195 20.0679 21.3836 20.4202C21.0477 20.7725 20.5908 20.9752 20.1111 20.9848H17.0161V19.7504C17.016 19.6091 16.9753 19.471 16.899 19.3536C16.8226 19.2361 16.7142 19.1446 16.5873 19.0905C16.4604 19.0365 16.3207 19.0223 16.186 19.0499C16.0513 19.0774 15.9276 19.1454 15.8304 19.2453L13.937 21.1927C13.8398 21.2926 13.7734 21.4197 13.7462 21.5583C13.719 21.6968 13.7322 21.8405 13.7842 21.9714C13.8182 22.0564 13.8682 22.1357 13.9356 22.205L15.8304 24.1538C15.9276 24.2536 16.0513 24.3216 16.186 24.3492C16.3207 24.3767 16.4604 24.3626 16.5873 24.3085C16.7142 24.2545 16.8226 24.163 16.899 24.0455C16.9753 23.9281 17.016 23.79 17.0161 23.6487V22.4136H20.1111C20.5381 22.42 20.9621 22.3391 21.3584 22.1755C21.7546 22.0119 22.1154 21.7689 22.4195 21.4606C22.7237 21.1523 22.9652 20.785 23.1301 20.3798C23.295 19.9747 23.3799 19.5399 23.3799 19.1007C23.3799 18.6615 23.295 18.2267 23.1301 17.8215C22.9652 17.4164 22.7237 17.049 22.4195 16.7407C22.1154 16.4324 21.7546 16.1894 21.3584 16.0258C20.9621 15.8622 20.5381 15.7813 20.1111 15.7878H18.2163Z" fill="white"/>
<path fill-rule="evenodd" clip-rule="evenodd" d="M11.8663 7.37908C12.2063 7.02936 12.6632 6.83663 13.1353 6.83663C13.6074 6.83663 14.0643 7.02936 14.4043 7.37908C14.745 7.72947 14.9397 8.20877 14.9397 8.71252C14.9397 9.21627 14.745 9.69558 14.4043 10.046C14.0643 10.3957 13.6074 10.5884 13.1353 10.5884C12.6632 10.5884 12.2063 10.3957 11.8663 10.046C11.5257 9.69558 11.3309 9.21627 11.3309 8.71252C11.3309 8.20877 11.5257 7.72947 11.8663 7.37908ZM13.1353 5.44312C12.2807 5.44312 11.4653 5.79248 10.8672 6.40769C10.2697 7.02223 9.93741 7.85166 9.93741 8.71252C9.93741 9.57339 10.2697 10.4028 10.8672 11.0174C11.4653 11.6326 12.2807 11.9819 13.1353 11.9819C13.9899 11.9819 14.8054 11.6326 15.4035 11.0174C16.0009 10.4028 16.3332 9.57339 16.3332 8.71252C16.3332 7.85166 16.0009 7.02223 15.4035 6.40769C14.8054 5.79248 13.9899 5.44312 13.1353 5.44312ZM18.0769 8.97123C17.7462 8.77452 17.3186 8.88317 17.1219 9.2139C16.9252 9.54463 17.0339 9.97221 17.3646 10.1689C17.5994 10.3085 17.8021 10.502 17.9566 10.7361C18.1112 10.9703 18.2131 11.2386 18.2535 11.5212C18.294 11.8038 18.2717 12.092 18.1888 12.364C18.1058 12.6359 17.9647 12.8835 17.7772 13.0888C17.5898 13.2939 17.3612 13.4514 17.1091 13.5509C16.8571 13.6504 16.5873 13.6898 16.3195 13.6666C16.0517 13.6435 15.7913 13.5584 15.5579 13.4165C15.3244 13.2745 15.1234 13.079 14.9711 12.8433C14.7622 12.5201 14.3308 12.4275 14.0077 12.6364C13.6845 12.8452 13.5919 13.2766 13.8007 13.5997C14.0657 14.0097 14.4185 14.3546 14.834 14.6072C15.2494 14.8598 15.7163 15.0133 16.1997 15.055C16.5934 15.089 16.9887 15.048 17.366 14.9353C17.5076 14.8569 17.6598 14.7981 17.8185 14.7612C18.1909 14.5839 18.5262 14.3351 18.8062 14.0285C19.1348 13.6686 19.379 13.2384 19.5217 12.7705C19.6644 12.3027 19.7023 11.8082 19.6329 11.3237C19.5636 10.8392 19.3885 10.3759 19.1197 9.96853C18.8508 9.56111 18.4948 9.21974 18.0769 8.97123ZM21.6095 18.0728V16.1434C21.9068 16.2979 22.1796 16.4993 22.4177 16.7406C22.6522 16.9782 22.8494 17.2509 23.003 17.549V20.6521C22.8494 20.9502 22.6522 21.2229 22.4177 21.4605C22.1136 21.7688 21.7529 22.0118 21.3566 22.1754C21.1184 22.2737 20.8702 22.3421 20.6174 22.3797H14.1039L13.9339 22.2048C13.8665 22.1355 13.8165 22.0562 13.7825 21.9712C13.7305 21.8404 13.7173 21.6967 13.7445 21.5582C13.7717 21.4196 13.8381 21.2924 13.9353 21.1926L14.136 20.9862H21.6095V20.1283C21.8015 19.8247 21.9059 19.4681 21.9059 19.1005C21.9059 18.733 21.8015 18.3764 21.6095 18.0728ZM12.8058 20.9862H7.99604V11.1244H8.96673C9.35153 11.1244 9.66348 10.8124 9.66348 10.4276C9.66348 10.0428 9.35153 9.73086 8.96673 9.73086H7.29929C6.91448 9.73086 6.60254 10.0428 6.60254 10.4276V21.683C6.60254 22.0678 6.91448 22.3797 7.29929 22.3797H12.7914C12.7901 22.3764 12.7887 22.373 12.7874 22.3696L12.7862 22.3668C12.6581 22.0442 12.626 21.6915 12.6927 21.3517C12.7173 21.226 12.7553 21.1034 12.8058 20.9862ZM23.003 15.8175V10.4276C23.003 10.0428 22.691 9.73086 22.3062 9.73086H21.0556C20.6708 9.73086 20.3589 10.0428 20.3589 10.4276C20.3589 10.8124 20.6708 11.1244 21.0556 11.1244H21.6095V14.974C21.6618 14.9933 21.7139 15.0136 21.7656 15.0349C22.2202 15.2226 22.6384 15.4877 23.003 15.8175Z" fill="white"/>
</svg>
