<svg width="31" height="31" viewBox="0 0 31 31" fill="none" xmlns="http://www.w3.org/2000/svg">
<rect x="0.170898" y="0.0264893" width="30.0143" height="30.0143" rx="5" fill="#FF9C00"/>
<path fill-rule="evenodd" clip-rule="evenodd" d="M14.7236 7.00087C14.9845 6.77746 15.3692 6.77746 15.6301 7.00087L22.7654 13.1119C22.9557 13.2757 23.1107 13.4775 23.2173 13.7064C23.3236 13.9346 23.3786 14.1831 23.3772 14.4356C23.3771 14.4367 23.3771 14.4377 23.3771 14.4388L22.6804 14.4334H23.3772V14.4356V20.3933C23.3772 20.8798 23.1686 21.3348 22.8164 21.6619C22.4659 21.9873 22.001 22.162 21.526 22.162H8.82771C8.35273 22.162 7.88777 21.9873 7.53732 21.6619C7.18514 21.3348 6.97656 20.8798 6.97656 20.3933V14.4356C6.97657 14.4365 6.97657 14.4375 6.97658 14.4384L7.67332 14.4334H6.97656V14.4356M15.1769 8.44745L8.49738 14.1681C8.4972 14.1682 8.49756 14.1679 8.49738 14.1681C8.45284 14.2066 8.4203 14.2507 8.39975 14.2948C8.37921 14.3389 8.36974 14.3842 8.37006 14.4283L8.3701 14.4334L8.37008 20.3933C8.37008 20.4755 8.40475 20.5657 8.48555 20.6407C8.56808 20.7174 8.69037 20.7685 8.82771 20.7685H21.526C21.6633 20.7685 21.7856 20.7174 21.8682 20.6407C21.949 20.5657 21.9836 20.4755 21.9836 20.3933V14.4279C21.984 14.3839 21.9746 14.3387 21.9541 14.2947C21.9335 14.2507 21.9016 14.2071 21.857 14.1687C21.8569 14.1686 21.8572 14.1688 21.857 14.1687L15.1769 8.44745Z" fill="white"/>
<path fill-rule="evenodd" clip-rule="evenodd" d="M13.854 14.6594V17.0166H16.4996V14.6594H13.854ZM16.9078 13.9627V13.2659H13.4458C13.2618 13.2659 13.0771 13.31 12.9122 13.4121C12.7492 13.513 12.6444 13.6464 12.5798 13.7663C12.5172 13.8825 12.4893 13.9912 12.4759 14.0657C12.4689 14.1045 12.4651 14.1385 12.4631 14.1657C12.462 14.1795 12.4613 14.1919 12.461 14.2027L12.4605 14.2178L12.4605 14.2245L12.4604 14.2277L12.4604 14.2292L12.4604 14.2299C12.4604 14.2303 12.4604 14.2307 13.1572 14.2307H12.4604V17.0177H11.4268C11.2428 17.0177 11.0581 17.0618 10.8932 17.1639C10.7302 17.2648 10.6253 17.3982 10.5608 17.5181C10.4982 17.6343 10.4702 17.743 10.4569 17.8175C10.4499 17.8562 10.4461 17.8902 10.444 17.9175C10.443 17.9313 10.4423 17.9436 10.4419 17.9545L10.4415 17.9696L10.4414 17.9763L10.4414 17.9795L10.4414 17.981L10.4414 17.9817C10.4414 17.9821 10.4414 17.9825 11.1382 17.9825H10.4414V21.1972C10.4414 21.3972 10.498 21.5924 10.6173 21.7585C10.7315 21.9176 10.8746 22.0105 10.9891 22.0636C11.102 22.1161 11.2059 22.1388 11.2751 22.1496C11.3115 22.1552 11.3432 22.1582 11.3683 22.1599C11.3809 22.1607 11.3922 22.1612 11.402 22.1615L11.4155 22.1619L11.4214 22.1619L11.4242 22.1619L11.4255 22.1619L11.4261 22.1619C11.4264 22.1619 11.4268 22.1619 11.4268 21.4652V22.1619H14.8888C14.9881 22.1619 15.0875 22.1491 15.184 22.1212C15.2343 22.1354 15.2788 22.1441 15.3143 22.1496C15.3507 22.1552 15.3824 22.1582 15.4075 22.1599C15.4201 22.1607 15.4314 22.1612 15.4412 22.1615L15.4547 22.1619L15.4606 22.1619L15.4634 22.1619L15.4647 22.1619L15.4653 22.1619C15.4655 22.1619 15.4657 22.1619 15.4659 21.9871C15.4659 21.9871 15.4659 21.9871 15.466 21.987V22.1619H18.928C19.112 22.1619 19.2966 22.1178 19.4616 22.0157C19.6246 21.9148 19.7294 21.7814 19.794 21.6615C19.8566 21.5453 19.8845 21.4366 19.8979 21.3622C19.9048 21.3234 19.9086 21.2894 19.9107 21.2621C19.9118 21.2484 19.9124 21.236 19.9128 21.2252L19.9132 21.2101L19.9133 21.2033L19.9133 21.2002L19.9133 21.1987L19.9133 21.1979C19.9133 21.1976 19.9133 21.1972 19.2166 21.1972H19.9133V17.9825C19.9133 17.7824 19.8567 17.5873 19.7375 17.4212C19.6233 17.2621 19.4802 17.1691 19.3657 17.116C19.2527 17.0636 19.1489 17.0408 19.0796 17.0301C19.0433 17.0245 19.0116 17.0214 18.9865 17.0198C18.9738 17.0189 18.9625 17.0184 18.9528 17.0181L18.9393 17.0178L18.9333 17.0177L18.9306 17.0177L18.9293 17.0177L18.9286 17.0177C18.9283 17.0177 18.928 17.0177 18.928 17.7145V17.0177H17.8932V14.2307C17.8932 14.0307 17.8366 13.8355 17.7173 13.6694C17.6031 13.5103 17.46 13.4174 17.3455 13.3642C17.2326 13.3118 17.1287 13.289 17.0595 13.2783C17.0231 13.2727 16.9914 13.2696 16.9663 13.268C16.9537 13.2671 16.9424 13.2666 16.9326 13.2663L16.9191 13.266L16.9132 13.266L16.9104 13.2659L16.9091 13.2659L16.9084 13.2659C16.9081 13.2659 16.9078 13.2659 16.9078 13.9627ZM14.4806 18.4112H11.8349V20.7684H14.4806V18.4112ZM15.8741 20.7684H18.5198V18.4112H15.8741V20.7684Z" fill="white"/>
</svg>
